<?xml version="1.0" encoding="UTF-8" standalone="no"?>
<!-- Roman Inozemtsev: https://github.com/mir-one/  -->

<svg
   xmlns:dc="http://purl.org/dc/elements/1.1/"
   xmlns:cc="http://creativecommons.org/ns#"
   xmlns:rdf="http://www.w3.org/1999/02/22-rdf-syntax-ns#"
   xmlns:svg="http://www.w3.org/2000/svg"
   xmlns="http://www.w3.org/2000/svg"
   xmlns:sodipodi="http://sodipodi.sourceforge.net/DTD/sodipodi-0.dtd"
   xmlns:inkscape="http://www.inkscape.org/namespaces/inkscape"
   version="1.1"
   id="Слой_1"
   shape-rendering="geometricPrecision"
   image-rendering="optimizeQuality"
   text-rendering="geometricPrecision"
   x="0px"
   y="0px"
   viewBox="0 0 114 114"
   style="enable-background:new 0 0 114 114;"
   xml:space="preserve"
   sodipodi:docname="in_icon.svg"
   inkscape:version="0.92.3 (2405546, 2018-03-11)"><metadata
   id="metadata10"><rdf:RDF><cc:Work
       rdf:about=""><dc:format>image/svg+xml</dc:format><dc:type
         rdf:resource="http://purl.org/dc/dcmitype/StillImage" /></cc:Work></rdf:RDF></metadata><defs
   id="defs8" /><sodipodi:namedview
   pagecolor="#ffffff"
   bordercolor="#666666"
   borderopacity="1"
   objecttolerance="10"
   gridtolerance="10"
   guidetolerance="10"
   inkscape:pageopacity="0"
   inkscape:pageshadow="2"
   inkscape:window-width="1366"
   inkscape:window-height="705"
   id="namedview6"
   showgrid="false"
   inkscape:zoom="2.9276702"
   inkscape:cx="68.625529"
   inkscape:cy="42.508179"
   inkscape:window-x="0"
   inkscape:window-y="354"
   inkscape:window-maximized="1"
   inkscape:current-layer="g931" />
<style
   type="text/css"
   id="style2">
	.st0{fill:#3AAF85;}
</style>
<path
   id="Layer_x0020_1"
   class="st0"
   d="M 4.2,46.9 46.9,4.2 c 5.5,-5.5 14.6,-5.5 20.1,0 L 109.8,47 c 5.5,5.5 5.5,14.6 0,20.1 L 67,109.9 c -5.5,5.5 -14.6,5.5 -20.1,0 L 4.2,67.1 c -5.6,-5.6 -5.6,-14.6 0,-20.2 z"
   inkscape:connector-curvature="0"
   style="fill:#0077b7;fill-opacity:1"
   sodipodi:nodetypes="ssssssccs" />
<g
   id="g987"
   transform="matrix(0.10461121,0,0,0.10461121,36.21568,33.174766)"
   style="fill:#ffffff"><g
     id="g931"
     style="fill:#ffffff">
	<path
   d="M 430.117,261.543 V 420.56 H 337.929 V 272.193 c 0,-37.271 -13.334,-62.707 -46.703,-62.707 -25.473,0 -40.632,17.142 -47.301,33.724 -2.432,5.928 -3.058,14.179 -3.058,22.477 V 420.56 h -92.219 c 0,0 1.242,-251.285 0,-277.32 h 92.21 v 39.309 c -0.187,0.294 -0.43,0.611 -0.606,0.896 h 0.606 v -0.896 c 12.251,-18.869 34.13,-45.824 83.102,-45.824 60.673,-0.001 106.157,39.636 106.157,124.818 z M 52.183,9.558 C 20.635,9.558 3.2272819e-8,30.251 3.2272819e-8,57.463 3.2272819e-8,84.082 20.038,105.403 50.959,105.403 h 0.616 c 32.159,0 52.159,-21.317 52.159,-47.94 C 103.128,30.251 83.734,9.558 52.183,9.558 Z M 5.477,420.56 H 97.661 V 143.24 H 5.477 Z"
   id="LinkedIn"
   inkscape:connector-curvature="0"
   style="fill:#ffffff" />
</g><g
     id="g933"
     style="fill:#ffffff">
</g><g
     id="g935"
     style="fill:#ffffff">
</g><g
     id="g937"
     style="fill:#ffffff">
</g><g
     id="g939"
     style="fill:#ffffff">
</g><g
     id="g941"
     style="fill:#ffffff">
</g><g
     id="g943"
     style="fill:#ffffff">
</g><g
     id="g945"
     style="fill:#ffffff">
</g><g
     id="g947"
     style="fill:#ffffff">
</g><g
     id="g949"
     style="fill:#ffffff">
</g><g
     id="g951"
     style="fill:#ffffff">
</g><g
     id="g953"
     style="fill:#ffffff">
</g><g
     id="g955"
     style="fill:#ffffff">
</g><g
     id="g957"
     style="fill:#ffffff">
</g><g
     id="g959"
     style="fill:#ffffff">
</g><g
     id="g961"
     style="fill:#ffffff">
</g></g></svg>