<?xml version="1.0" encoding="UTF-8" standalone="no"?>
<!-- Roman Inozemtsev: https://github.com/mir-one/  -->

<svg
   xmlns:dc="http://purl.org/dc/elements/1.1/"
   xmlns:cc="http://creativecommons.org/ns#"
   xmlns:rdf="http://www.w3.org/1999/02/22-rdf-syntax-ns#"
   xmlns:svg="http://www.w3.org/2000/svg"
   xmlns="http://www.w3.org/2000/svg"
   xmlns:xlink="http://www.w3.org/1999/xlink"
   xmlns:sodipodi="http://sodipodi.sourceforge.net/DTD/sodipodi-0.dtd"
   xmlns:inkscape="http://www.inkscape.org/namespaces/inkscape"
   version="1.1"
   id="Слой_1"
   shape-rendering="geometricPrecision"
   image-rendering="optimizeQuality"
   text-rendering="geometricPrecision"
   x="0px"
   y="0px"
   viewBox="0 0 114 114"
   style="enable-background:new 0 0 114 114;"
   xml:space="preserve"
   sodipodi:docname="instagram_icon.svg"
   inkscape:version="0.92.3 (2405546, 2018-03-11)"><metadata
   id="metadata10"><rdf:RDF><cc:Work
       rdf:about=""><dc:format>image/svg+xml</dc:format><dc:type
         rdf:resource="http://purl.org/dc/dcmitype/StillImage" /></cc:Work></rdf:RDF></metadata><defs
   id="defs8"><linearGradient
     id="b"><stop
       id="stop919"
       stop-color="#3771c8"
       offset="0" /><stop
       id="stop921"
       offset=".128"
       stop-color="#3771c8" /><stop
       id="stop923"
       stop-opacity="0"
       stop-color="#60f"
       offset="1" /></linearGradient><linearGradient
     id="a"><stop
       id="stop926"
       stop-color="#fd5"
       offset="0" /><stop
       id="stop928"
       stop-color="#fd5"
       offset=".1" /><stop
       id="stop930"
       stop-color="#ff543e"
       offset=".5" /><stop
       id="stop932"
       stop-color="#c837ab"
       offset="1" /></linearGradient><radialGradient
     fy="578.088"
     fx="158.429"
     gradientTransform="matrix(0,-1.98198,1.8439,0,-1031.402,454.004)"
     gradientUnits="userSpaceOnUse"
     xlink:href="#a"
     r="65"
     cy="578.088"
     cx="158.429"
     id="c" /><radialGradient
     fy="473.455"
     fx="147.694"
     gradientTransform="matrix(0.17394,0.86872,-3.5818,0.71718,1648.348,-458.493)"
     gradientUnits="userSpaceOnUse"
     xlink:href="#b"
     r="65"
     cy="473.455"
     cx="147.694"
     id="d" /></defs><sodipodi:namedview
   pagecolor="#ffffff"
   bordercolor="#666666"
   borderopacity="1"
   objecttolerance="10"
   gridtolerance="10"
   guidetolerance="10"
   inkscape:pageopacity="0"
   inkscape:pageshadow="2"
   inkscape:window-width="1366"
   inkscape:window-height="705"
   id="namedview6"
   showgrid="false"
   inkscape:zoom="2.0701754"
   inkscape:cx="69.876667"
   inkscape:cy="36.117995"
   inkscape:window-x="0"
   inkscape:window-y="354"
   inkscape:window-maximized="1"
   inkscape:current-layer="g965" />
<style
   type="text/css"
   id="style2">
	.st0{fill:#3AAF85;}
</style>

<g
   id="g965"
   transform="matrix(0.71146672,0,0,0.71146672,-166.44623,46.011023)"><g
     id="g969"
     transform="rotate(-45,129.14902,-258.96228)"><path
       style="fill:url(#c)"
       inkscape:connector-curvature="0"
       d="M 65.03,0 C 37.888,0 29.95,0.028 28.407,0.156 22.837,0.619 19.371,1.496 15.595,3.376 12.685,4.821 10.39,6.496 8.125,8.844 4,13.126 1.5,18.394 0.595,24.656 c -0.44,3.04 -0.568,3.66 -0.594,19.188 -0.01,5.176 0,11.988 0,21.125 0,27.12 0.03,35.05 0.16,36.59 0.45,5.42 1.3,8.83 3.1,12.56 3.44,7.14 10.01,12.5 17.75,14.5 2.68,0.69 5.64,1.07 9.44,1.25 1.61,0.07 18.02,0.12 34.44,0.12 16.42,0 32.84,-0.02 34.41,-0.1 4.4,-0.207 6.955,-0.55 9.78,-1.28 7.79,-2.01 14.24,-7.29 17.75,-14.53 1.765,-3.64 2.66,-7.18 3.065,-12.317 0.088,-1.12 0.125,-18.977 0.125,-36.81 0,-17.836 -0.04,-35.66 -0.128,-36.78 -0.41,-5.22 -1.305,-8.73 -3.127,-12.44 -1.495,-3.037 -3.155,-5.305 -5.565,-7.624 C 116.9,4 111.64,1.5 105.372,0.596 102.335,0.157 101.73,0.027 86.19,0 Z"
       transform="translate(1.004,1)"
       id="path939" /><path
       transform="translate(1.004,1)"
       style="fill:url(#d)"
       inkscape:connector-curvature="0"
       d="M 65.03,0 C 37.888,0 29.95,0.028 28.407,0.156 22.837,0.619 19.371,1.496 15.595,3.376 12.685,4.821 10.39,6.496 8.125,8.844 4,13.126 1.5,18.394 0.595,24.656 c -0.44,3.04 -0.568,3.66 -0.594,19.188 -0.01,5.176 0,11.988 0,21.125 0,27.12 0.03,35.05 0.16,36.59 0.45,5.42 1.3,8.83 3.1,12.56 3.44,7.14 10.01,12.5 17.75,14.5 2.68,0.69 5.64,1.07 9.44,1.25 1.61,0.07 18.02,0.12 34.44,0.12 16.42,0 32.84,-0.02 34.41,-0.1 4.4,-0.207 6.955,-0.55 9.78,-1.28 7.79,-2.01 14.24,-7.29 17.75,-14.53 1.765,-3.64 2.66,-7.18 3.065,-12.317 0.088,-1.12 0.125,-18.977 0.125,-36.81 0,-17.836 -0.04,-35.66 -0.128,-36.78 -0.41,-5.22 -1.305,-8.73 -3.127,-12.44 -1.495,-3.037 -3.155,-5.305 -5.565,-7.624 C 116.9,4 111.64,1.5 105.372,0.596 102.335,0.157 101.73,0.027 86.19,0 Z"
       id="path941" /></g><path
     id="path943"
     d="m 314.29164,-23.749249 c -10.63891,0 -11.97408,0.04652 -16.1526,0.236674 -4.17036,0.190972 -7.01698,0.851211 -9.50777,1.819942 -2.57648,1.00056 -4.76205,2.338993 -6.93945,4.51721 -2.17903,2.177402 -3.51747,4.362963 -4.52129,6.93863 -0.97118,2.4916073 -1.63224,5.3390413 -1.81994,9.5077693 -0.18689,4.1785218 -0.23586,5.5145065 -0.23586,16.1534147 0,10.638908 0.0473,11.969996 0.23667,16.148518 0.19179,4.17036 0.85203,7.016978 1.81995,9.507769 1.00137,2.576483 2.33981,4.762045 4.51802,6.939447 2.17659,2.179034 4.36215,3.520731 6.937,4.521291 2.49242,0.968731 5.33986,1.62897 9.5094,1.819942 4.17852,0.190155 5.51288,0.236674 16.15097,0.236674 10.63972,0 11.97081,-0.04652 16.14933,-0.236674 4.17036,-0.190972 7.02024,-0.851211 9.51267,-1.819942 2.57566,-1.00056 4.75796,-2.342257 6.93455,-4.521291 2.17903,-2.177402 3.51746,-4.362964 4.52129,-6.938631 0.96302,-2.491607 1.62407,-5.339041 1.81994,-9.507769 0.18771,-4.178522 0.23667,-5.510426 0.23667,-16.149334 0,-10.6389082 -0.049,-11.9740768 -0.23667,-16.1525986 -0.19587,-4.1703603 -0.85692,-7.0169781 -1.81994,-9.5077694 -1.00383,-2.576483 -2.34226,-4.762044 -4.52129,-6.939446 -2.17904,-2.179033 -4.35807,-3.517466 -6.937,-4.51721 -2.49732,-0.968731 -5.34557,-1.62897 -9.51593,-1.819942 -4.17852,-0.190155 -5.50879,-0.236674 -16.15097,-0.236674 z m -3.51421,7.059416 c 1.043,-0.0016 2.20678,0 3.51421,0 10.45936,0 11.69904,0.03754 15.82941,0.225249 3.81943,0.174649 5.89237,0.812853 7.27324,1.349042 1.8281,0.710022 3.13144,1.558783 4.5017,2.929861 1.37108,1.371077 2.21984,2.6768654 2.9315,4.5049686 0.53619,1.3792385 1.17521,3.4521771 1.34904,7.2716068 0.18771,4.1295547 0.22851,5.3700534 0.22851,15.8245196 0,10.454465 -0.0408,11.694964 -0.22851,15.824519 -0.17465,3.81943 -0.81285,5.892368 -1.34904,7.271607 -0.71002,1.828103 -1.56042,3.12981 -2.9315,4.500072 -1.37107,1.371077 -2.67278,2.219839 -4.5017,2.929862 -1.37924,0.538637 -3.45381,1.175209 -7.27324,1.349858 -4.12955,0.187707 -5.37005,0.228513 -15.82941,0.228513 -10.46018,0 -11.69987,-0.04081 -15.82942,-0.228513 -3.81943,-0.176281 -5.89237,-0.814485 -7.27406,-1.350675 -1.8281,-0.710022 -3.13389,-1.558784 -4.50496,-2.929861 -1.37108,-1.371078 -2.21984,-2.673601 -2.9315,-4.502521 -0.53619,-1.379238 -1.17521,-3.452177 -1.34904,-7.271607 -0.18771,-4.129554 -0.22525,-5.370053 -0.22525,-15.831047 0,-10.4609952 0.0375,-11.6949653 0.22525,-15.82452 0.17465,-3.8194297 0.81285,-5.8923683 1.34904,-7.2732391 0.71002,-1.8281032 1.56042,-3.1338919 2.9315,-4.5049689 1.37107,-1.371077 2.67686,-2.219839 4.50496,-2.931493 1.38088,-0.538638 3.45463,-1.175209 7.27406,-1.350674 3.61377,-0.163224 5.01423,-0.212191 12.31521,-0.220352 z m 24.42477,6.504456 c -2.59526,0 -4.70084,2.1031348 -4.70084,4.6992045 0,2.5952534 2.10558,4.7008367 4.70084,4.7008367 2.59525,0 4.70083,-2.1055833 4.70083,-4.7008367 0,-2.5952536 -2.10558,-4.7008365 -4.70083,-4.7008365 z m -20.91056,5.4924708 c -11.10981,0 -20.1173,9.007489 -20.1173,20.1172972 0,11.109808 9.00749,20.113217 20.1173,20.113217 11.1098,0 20.11403,-9.003409 20.11403,-20.113217 0,-11.1098082 -9.00504,-20.1172972 -20.11485,-20.1172972 z m 0,7.0594164 c 7.21121,0 13.05788,5.8458508 13.05788,13.0578808 0,7.211215 -5.84667,13.057881 -13.05788,13.057881 -7.21204,0 -13.05789,-5.846666 -13.05789,-13.057881 0,-7.21203 5.84585,-13.0578808 13.05789,-13.0578808 z"
     inkscape:connector-curvature="0"
     style="fill:#ffffff;stroke-width:0.81611753" /></g></svg>