<?xml version="1.0" encoding="UTF-8" standalone="no"?>
<!-- Generator: Adobe Illustrator 21.0.0, SVG Export Plug-In . SVG Version: 6.00 Build 0)  -->

<svg
   xmlns:dc="http://purl.org/dc/elements/1.1/"
   xmlns:cc="http://creativecommons.org/ns#"
   xmlns:rdf="http://www.w3.org/1999/02/22-rdf-syntax-ns#"
   xmlns:svg="http://www.w3.org/2000/svg"
   xmlns="http://www.w3.org/2000/svg"
   xmlns:sodipodi="http://sodipodi.sourceforge.net/DTD/sodipodi-0.dtd"
   xmlns:inkscape="http://www.inkscape.org/namespaces/inkscape"
   version="1.1"
   id="Слой_1"
   x="0px"
   y="0px"
   viewBox="0 0 24 24"
   style="image-rendering:optimizeQuality;shape-rendering:geometricPrecision;text-rendering:geometricPrecision"
   xml:space="preserve"
   sodipodi:docname="tabs-iconset-history.svg"
   width="24"
   height="24"
   inkscape:version="0.92.3 (2405546, 2018-03-11)"><metadata
     id="metadata41"><rdf:RDF><cc:Work
         rdf:about=""><dc:format>image/svg+xml</dc:format><dc:type
           rdf:resource="http://purl.org/dc/dcmitype/StillImage" /></cc:Work></rdf:RDF></metadata><defs
     id="defs39" /><sodipodi:namedview
     pagecolor="#ffffff"
     bordercolor="#666666"
     borderopacity="1"
     objecttolerance="10"
     gridtolerance="10"
     guidetolerance="10"
     inkscape:pageopacity="0"
     inkscape:pageshadow="2"
     inkscape:window-width="1366"
     inkscape:window-height="691"
     id="namedview37"
     showgrid="false"
     inkscape:zoom="27.812867"
     inkscape:cx="5.4168462"
     inkscape:cy="20.868946"
     inkscape:window-x="0"
     inkscape:window-y="0"
     inkscape:window-maximized="1"
     inkscape:current-layer="Слой_1" /><style
     type="text/css"
     id="style2">
	.st0{fill:#00AEEF;}
	.st1{fill:#FFFFFF;}
</style><style
     id="style2-67"
     type="text/css">
	.st0{fill:#00AEEF;}
	.st1{fill:#FFFFFF;}
</style><style
     type="text/css"
     id="style2-6">
	.st0{fill:#3F58A7;}
	.st1{fill:#FFFFFF;}
</style><style
     id="style21"
     type="text/css">
	.st0{fill:#00AEEF;}
	.st1{fill:#FFFFFF;}
</style><style
     id="style60"
     type="text/css">
	.st0{fill:url(#SVGID_1_);}
	.st1{fill:#FFFFFF;}
</style><style
     id="style818"
     type="text/css">
	.st0{fill:#21409A;}
	.st1{fill:#FFFFFF;}
</style><rect
     style="opacity:1;fill:#258e25;fill-opacity:1;fill-rule:nonzero;stroke:none;stroke-width:7;stroke-linecap:round;stroke-linejoin:miter;stroke-miterlimit:4;stroke-dasharray:none;stroke-opacity:1;paint-order:stroke markers fill;image-rendering:optimizeQuality;shape-rendering:geometricPrecision;text-rendering:geometricPrecision"
     id="rect893"
     width="24"
     height="24"
     x="0"
     y="0"
     ry="2.1355932"
     rx="2.1355932" /><rect
     rx="1.3220341"
     ry="1.3220336"
     y="1.000001"
     x="1.000001"
     height="21.999998"
     width="21.999998"
     id="rect895"
     style="opacity:1;fill:#ffffff;fill-opacity:1;fill-rule:nonzero;stroke:none;stroke-width:6.99999905;stroke-linecap:round;stroke-linejoin:miter;stroke-miterlimit:4;stroke-dasharray:none;stroke-opacity:1;paint-order:stroke markers fill;image-rendering:optimizeQuality;shape-rendering:geometricPrecision;text-rendering:geometricPrecision" /><g
     style="display:none"
     id="Rounded"
     display="none"
     transform="translate(-6.8949154,-6.1593327)">
	<g
   id="ui_x5F_spec_x5F_header_copy_5">
	</g>
	<path
   style="display:inline"
   inkscape:connector-curvature="0"
   display="inline"
   d="m 4,13 v 0 c 0.55,0 1,-0.45 1,-1 v 0 C 5,11.45 4.55,11 4,11 v 0 c -0.55,0 -1,0.45 -1,1 v 0 c 0,0.55 0.45,1 1,1 z m 0,4 v 0 c 0.55,0 1,-0.45 1,-1 v 0 C 5,15.45 4.55,15 4,15 v 0 c -0.55,0 -1,0.45 -1,1 v 0 c 0,0.55 0.45,1 1,1 z M 4,9 V 9 C 4.55,9 5,8.55 5,8 V 8 C 5,7.45 4.55,7 4,7 V 7 C 3.45,7 3,7.45 3,8 v 0 c 0,0.55 0.45,1 1,1 z m 4,4 h 12 c 0.55,0 1,-0.45 1,-1 v 0 c 0,-0.55 -0.45,-1 -1,-1 H 8 c -0.55,0 -1,0.45 -1,1 v 0 c 0,0.55 0.45,1 1,1 z m 0,4 h 12 c 0.55,0 1,-0.45 1,-1 v 0 c 0,-0.55 -0.45,-1 -1,-1 H 8 c -0.55,0 -1,0.45 -1,1 v 0 c 0,0.55 0.45,1 1,1 z M 7,8 v 0 c 0,0.55 0.45,1 1,1 h 12 c 0.55,0 1,-0.45 1,-1 V 8 C 21,7.45 20.55,7 20,7 H 8 C 7.45,7 7,7.45 7,8 Z"
   id="path839" />
	<path
   style="display:inline"
   inkscape:connector-curvature="0"
   display="inline"
   d="m 4,13 v 0 c 0.55,0 1,-0.45 1,-1 v 0 C 5,11.45 4.55,11 4,11 v 0 c -0.55,0 -1,0.45 -1,1 v 0 c 0,0.55 0.45,1 1,1 z m 0,4 v 0 c 0.55,0 1,-0.45 1,-1 v 0 C 5,15.45 4.55,15 4,15 v 0 c -0.55,0 -1,0.45 -1,1 v 0 c 0,0.55 0.45,1 1,1 z M 4,9 V 9 C 4.55,9 5,8.55 5,8 V 8 C 5,7.45 4.55,7 4,7 V 7 C 3.45,7 3,7.45 3,8 v 0 c 0,0.55 0.45,1 1,1 z m 4,4 h 12 c 0.55,0 1,-0.45 1,-1 v 0 c 0,-0.55 -0.45,-1 -1,-1 H 8 c -0.55,0 -1,0.45 -1,1 v 0 c 0,0.55 0.45,1 1,1 z m 0,4 h 12 c 0.55,0 1,-0.45 1,-1 v 0 c 0,-0.55 -0.45,-1 -1,-1 H 8 c -0.55,0 -1,0.45 -1,1 v 0 c 0,0.55 0.45,1 1,1 z M 7,8 v 0 c 0,0.55 0.45,1 1,1 h 12 c 0.55,0 1,-0.45 1,-1 V 8 C 21,7.45 20.55,7 20,7 H 8 C 7.45,7 7,7.45 7,8 Z"
   id="path841" />
</g><g
     style="display:none"
     id="Sharp"
     display="none"
     transform="translate(-6.8949154,-6.1593327)">
	<g
   id="ui_x5F_spec_x5F_header_copy_4">
	</g>
	<path
   style="display:inline"
   inkscape:connector-curvature="0"
   display="inline"
   d="M 3,13 H 5 V 11 H 3 Z m 0,4 H 5 V 15 H 3 Z M 3,9 H 5 V 7 H 3 Z m 4,4 H 21 V 11 H 7 Z m 0,4 H 21 V 15 H 7 Z M 7,7 V 9 H 21 V 7 Z"
   id="path845" />
	<path
   style="display:inline"
   inkscape:connector-curvature="0"
   display="inline"
   d="M 3,13 H 5 V 11 H 3 Z m 0,4 H 5 V 15 H 3 Z M 3,9 H 5 V 7 H 3 Z m 4,4 H 21 V 11 H 7 Z m 0,4 H 21 V 15 H 7 Z M 7,7 V 9 H 21 V 7 Z"
   id="path847" />
</g><g
     style="display:none"
     id="Duotone"
     display="none"
     transform="translate(-6.8949154,-6.1593327)">
	<g
   id="ui_x5F_spec_x5F_header_copy_2">
	</g>
	<path
   style="display:inline"
   inkscape:connector-curvature="0"
   display="inline"
   d="M 3,13 H 5 V 11 H 3 Z m 0,4 H 5 V 15 H 3 Z M 3,9 H 5 V 7 H 3 Z m 4,4 H 21 V 11 H 7 Z m 0,4 H 21 V 15 H 7 Z M 7,7 V 9 H 21 V 7 Z"
   id="path857" />
	<path
   style="display:inline"
   inkscape:connector-curvature="0"
   display="inline"
   d="M 3,13 H 5 V 11 H 3 Z m 0,4 H 5 V 15 H 3 Z M 3,9 H 5 V 7 H 3 Z m 4,4 H 21 V 11 H 7 Z m 0,4 H 21 V 15 H 7 Z M 7,7 V 9 H 21 V 7 Z"
   id="path859" />
</g><g
     style="display:none"
     id="Material"
     display="none"
     transform="translate(-6.8949154,-6.1593327)">
	<g
   id="ui_x5F_spec_x5F_header_copy">
	</g>
	<path
   style="display:inline"
   inkscape:connector-curvature="0"
   display="inline"
   d="M 3,13 H 5 V 11 H 3 Z m 0,4 H 5 V 15 H 3 Z M 3,9 H 5 V 7 H 3 Z m 4,4 H 21 V 11 H 7 Z m 0,4 H 21 V 15 H 7 Z M 7,7 V 9 H 21 V 7 Z"
   id="path863" />
</g><style
     id="style2-675"
     type="text/css">
	.st0{fill:#00AEEF;}
	.st1{fill:#FFFFFF;}
</style><style
     type="text/css"
     id="style2-6-3">
	.st0{fill:#3F58A7;}
	.st1{fill:#FFFFFF;}
</style><style
     id="style21-5"
     type="text/css">
	.st0{fill:#00AEEF;}
	.st1{fill:#FFFFFF;}
</style><style
     id="style60-6"
     type="text/css">
	.st0{fill:url(#SVGID_1_);}
	.st1{fill:#FFFFFF;}
</style><style
     id="style818-2"
     type="text/css">
	.st0{fill:#21409A;}
	.st1{fill:#FFFFFF;}
</style><g
     style="display:none;image-rendering:optimizeQuality;shape-rendering:geometricPrecision;text-rendering:geometricPrecision"
     id="Rounded-9"
     display="none"
     transform="translate(-23.99661,-3.0546711)">
	<g
   id="ui_x5F_spec_x5F_header_copy_5-1">
	</g>
	<path
   style="display:inline"
   inkscape:connector-curvature="0"
   display="inline"
   d="m 6.14,11.86 -2.78,2.79 c -0.19,0.2 -0.19,0.51 0,0.71 l 2.78,2.79 c 0.31,0.32 0.85,0.09 0.85,-0.35 V 16 H 13 c 0.55,0 1,-0.45 1,-1 v 0 c 0,-0.55 -0.45,-1 -1,-1 H 6.99 v -1.79 c 0,-0.45 -0.54,-0.67 -0.85,-0.35 z M 20.65,8.65 17.87,5.86 C 17.56,5.54 17.02,5.77 17.02,6.21 V 8 H 11 c -0.55,0 -1,0.45 -1,1 v 0 c 0,0.55 0.45,1 1,1 h 6.01 v 1.79 c 0,0.45 0.54,0.67 0.85,0.35 l 2.78,-2.79 c 0.2,-0.19 0.2,-0.51 0.01,-0.7 z"
   id="path829" />
</g><g
     style="display:none;image-rendering:optimizeQuality;shape-rendering:geometricPrecision;text-rendering:geometricPrecision"
     id="Sharp-2"
     display="none"
     transform="translate(-23.99661,-3.0546711)">
	<g
   id="ui_x5F_spec_x5F_header_copy_4-7">
	</g>
	<path
   style="display:inline"
   inkscape:connector-curvature="0"
   display="inline"
   d="M 6.99,11 3,15 6.99,19 V 16 H 14 V 14 H 6.99 Z M 21,9 17.01,5 V 8 H 10 v 2 h 7.01 v 3 z"
   id="path833" />
</g><g
     style="display:none;image-rendering:optimizeQuality;shape-rendering:geometricPrecision;text-rendering:geometricPrecision"
     id="Duotone-3"
     display="none"
     transform="translate(-23.99661,-3.0546711)">
	<g
   id="ui_x5F_spec_x5F_header_copy_2-6">
	</g>
	<g
   style="display:inline"
   display="inline"
   id="g843">
		<path
   inkscape:connector-curvature="0"
   d="M 6.99,11 3,15 6.99,19 V 16 H 14 V 14 H 6.99 Z M 21,9 17.01,5 V 8 H 10 v 2 h 7.01 v 3 z"
   id="path841-0" />
	</g>
</g><g
     style="display:none;image-rendering:optimizeQuality;shape-rendering:geometricPrecision;text-rendering:geometricPrecision"
     id="Material-6"
     display="none"
     transform="translate(-23.99661,-3.0546711)">
	<g
   id="ui_x5F_spec_x5F_header_copy-2">
	</g>
	<path
   style="display:inline"
   inkscape:connector-curvature="0"
   display="inline"
   d="M 6.99,11 3,15 6.99,19 V 16 H 14 V 14 H 6.99 Z M 21,9 17.01,5 V 8 H 10 v 2 h 7.01 v 3 z"
   id="path847-6" />
</g><g
     id="Outline-1"
     transform="matrix(0.84961111,0,0,0.84961111,1.8046666,1.8046667)"
     style="fill:#258e25;fill-opacity:1;stroke-width:1.17700911;image-rendering:optimizeQuality;shape-rendering:geometricPrecision;text-rendering:geometricPrecision"><g
       style="display:none;fill:#258e25;fill-opacity:1;stroke-width:1.17700911"
       id="ui_x5F_spec_x5F_header-8"
       display="none" /><path
       inkscape:connector-curvature="0"
       d="M 3,13 H 5 V 11 H 3 Z m 0,4 H 5 V 15 H 3 Z M 3,9 H 5 V 7 H 3 Z m 4,4 H 21 V 11 H 7 Z m 0,4 H 21 V 15 H 7 Z M 7,7 V 9 H 21 V 7 Z"
       id="path851-7"
       style="fill:#258e25;fill-opacity:1;stroke-width:1.17700911" /><path
       inkscape:connector-curvature="0"
       d="M 3,13 H 5 V 11 H 3 Z m 0,4 H 5 V 15 H 3 Z M 3,9 H 5 V 7 H 3 Z m 4,4 H 21 V 11 H 7 Z m 0,4 H 21 V 15 H 7 Z M 7,7 V 9 H 21 V 7 Z"
       id="path853-9"
       style="fill:#258e25;fill-opacity:1;stroke-width:1.17700911" /></g></svg>