<?xml version="1.0" encoding="UTF-8" standalone="no"?>
<svg
   xmlns:dc="http://purl.org/dc/elements/1.1/"
   xmlns:cc="http://creativecommons.org/ns#"
   xmlns:rdf="http://www.w3.org/1999/02/22-rdf-syntax-ns#"
   xmlns:svg="http://www.w3.org/2000/svg"
   xmlns="http://www.w3.org/2000/svg"
   xmlns:sodipodi="http://sodipodi.sourceforge.net/DTD/sodipodi-0.dtd"
   xmlns:inkscape="http://www.inkscape.org/namespaces/inkscape"
   width="24"
   height="24"
   viewBox="0 0 25000 25000"
   version="1.1"
   id="svg12"
   sodipodi:docname="tabs-iconset-voting.svg"
   style="clip-rule:evenodd;fill-rule:evenodd;image-rendering:optimizeQuality;shape-rendering:geometricPrecision;text-rendering:geometricPrecision"
   inkscape:version="0.92.3 (2405546, 2018-03-11)">
  <metadata
     id="metadata16">
    <rdf:RDF>
      <cc:Work
         rdf:about="">
        <dc:format>image/svg+xml</dc:format>
        <dc:type
           rdf:resource="http://purl.org/dc/dcmitype/StillImage" />
      </cc:Work>
    </rdf:RDF>
  </metadata>
  <sodipodi:namedview
     pagecolor="#ffffff"
     bordercolor="#666666"
     borderopacity="1"
     objecttolerance="10"
     gridtolerance="10"
     guidetolerance="10"
     inkscape:pageopacity="0"
     inkscape:pageshadow="2"
     inkscape:window-width="1366"
     inkscape:window-height="691"
     id="namedview14"
     showgrid="false"
     inkscape:zoom="55.625732"
     inkscape:cx="7.1612119"
     inkscape:cy="14.444771"
     inkscape:window-x="0"
     inkscape:window-y="0"
     inkscape:window-maximized="1"
     inkscape:current-layer="svg12" />
  <defs
     id="defs4">
    <style
       id="style2"><![CDATA[
    .fil0 {fill:#ffffff}
   ]]></style>
  </defs>
  <style
     id="style2-3"
     type="text/css">
	.st0{fill:#00AEEF;}
	.st1{fill:#FFFFFF;}
</style>
  <style
     type="text/css"
     id="style2-675">
	.st0{fill:#00AEEF;}
	.st1{fill:#FFFFFF;}
</style>
  <style
     id="style2-67"
     type="text/css">
	.st0{fill:#00AEEF;}
	.st1{fill:#FFFFFF;}
</style>
  <style
     type="text/css"
     id="style2-6">
	.st0{fill:#3F58A7;}
	.st1{fill:#FFFFFF;}
</style>
  <style
     id="style21"
     type="text/css">
	.st0{fill:#00AEEF;}
	.st1{fill:#FFFFFF;}
</style>
  <style
     id="style60"
     type="text/css">
	.st0{fill:url(#SVGID_1_);}
	.st1{fill:#FFFFFF;}
</style>
  <style
     id="style818"
     type="text/css">
	.st0{fill:#21409A;}
	.st1{fill:#FFFFFF;}
</style>
  <style
     type="text/css"
     id="style836">
	.st0{fill:#4598C5;}
</style>
  <style
     type="text/css"
     id="style860">
	.st0{fill:#4598C5;}
</style>
  <rect
     style="opacity:1;fill:#258e25;fill-opacity:1;fill-rule:nonzero;stroke:none;stroke-width:7291.66699219;stroke-linecap:round;stroke-linejoin:miter;stroke-miterlimit:4;stroke-dasharray:none;stroke-opacity:1;paint-order:stroke markers fill;image-rendering:optimizeQuality;shape-rendering:geometricPrecision;text-rendering:geometricPrecision"
     id="rect893"
     width="25000"
     height="25000"
     x="0"
     y="-3.6379788e-12"
     ry="2224.5764"
     rx="2224.5764" />
  <rect
     rx="1377.1188"
     ry="1377.1184"
     y="1041.667"
     x="1041.667"
     height="22916.666"
     width="22916.666"
     id="rect895"
     style="opacity:1;fill:#ffffff;fill-opacity:1;fill-rule:nonzero;stroke:none;stroke-width:7291.66601562;stroke-linecap:round;stroke-linejoin:miter;stroke-miterlimit:4;stroke-dasharray:none;stroke-opacity:1;paint-order:stroke markers fill;image-rendering:optimizeQuality;shape-rendering:geometricPrecision;text-rendering:geometricPrecision" />
  <g
     style="display:none;image-rendering:optimizeQuality;shape-rendering:geometricPrecision;text-rendering:geometricPrecision"
     id="Rounded"
     display="none"
     transform="matrix(1041.6667,0,0,1041.6667,29661.016,29142.021)">
    <g
       id="ui_x5F_spec_x5F_header_copy_5" />
    <path
       style="display:inline"
       inkscape:connector-curvature="0"
       display="inline"
       d="M 20,4 H 4 C 2.89,4 2.01,4.89 2.01,6 L 2,18 c 0,1.11 0.89,2 2,2 h 16 c 1.11,0 2,-0.89 2,-2 V 6 C 22,4.89 21.11,4 20,4 Z M 19,18 H 5 C 4.45,18 4,17.55 4,17 v -5 h 16 v 5 c 0,0.55 -0.45,1 -1,1 z M 20,8 H 4 V 7 C 4,6.45 4.45,6 5,6 h 14 c 0.55,0 1,0.45 1,1 z"
       id="path828" />
  </g>
  <g
     style="display:none;image-rendering:optimizeQuality;shape-rendering:geometricPrecision;text-rendering:geometricPrecision"
     id="Sharp"
     display="none"
     transform="matrix(1041.6667,0,0,1041.6667,29661.016,29142.021)">
    <g
       id="ui_x5F_spec_x5F_header_copy_4" />
    <path
       style="display:inline"
       inkscape:connector-curvature="0"
       display="inline"
       d="M 22,4 H 2 V 20 H 22 Z M 20,18 H 4 V 12 H 20 Z M 20,8 H 4 V 6 h 16 z"
       id="path832" />
  </g>
  <g
     style="display:none;image-rendering:optimizeQuality;shape-rendering:geometricPrecision;text-rendering:geometricPrecision"
     id="Duotone"
     display="none"
     transform="matrix(1041.6667,0,0,1041.6667,29661.016,29142.021)">
    <g
       id="ui_x5F_spec_x5F_header_copy_2" />
    <g
       style="display:inline"
       display="inline"
       id="g846">
      <rect
         style="opacity:0.3"
         x="4"
         y="6"
         width="16"
         height="2"
         id="rect840" />
      <rect
         style="opacity:0.3"
         x="4"
         y="12"
         width="16"
         height="6"
         id="rect842" />
      <path
         inkscape:connector-curvature="0"
         d="M 20,4 H 4 C 2.89,4 2.01,4.89 2.01,6 L 2,18 c 0,1.11 0.89,2 2,2 h 16 c 1.11,0 2,-0.89 2,-2 V 6 C 22,4.89 21.11,4 20,4 Z m 0,14 H 4 V 12 H 20 Z M 20,8 H 4 V 6 h 16 z"
         id="path844" />
    </g>
  </g>
  <g
     style="display:none;image-rendering:optimizeQuality;shape-rendering:geometricPrecision;text-rendering:geometricPrecision"
     id="Material"
     display="none"
     transform="matrix(1041.6667,0,0,1041.6667,29661.016,29142.021)">
    <g
       id="ui_x5F_spec_x5F_header_copy" />
    <path
       style="display:inline"
       inkscape:connector-curvature="0"
       display="inline"
       d="M 20,4 H 4 C 2.89,4 2.01,4.89 2.01,6 L 2,18 c 0,1.11 0.89,2 2,2 h 16 c 1.11,0 2,-0.89 2,-2 V 6 C 22,4.89 21.11,4 20,4 Z m 0,14 H 4 V 12 H 20 Z M 20,8 H 4 V 6 h 16 z"
       id="path850" />
  </g>
  <path
     inkscape:connector-curvature="0"
     d="m 12499.999,4166.6665 c -3224.9999,0 -5833.3319,2608.3334 -5833.3319,5833.3345 0,4375 5833.3319,10833.333 5833.3319,10833.333 0,0 5833.334,-6458.333 5833.334,-10833.333 0,-3225.0011 -2608.332,-5833.3345 -5833.334,-5833.3345 z m 0,7916.6675 c -1149.999,0 -2083.332,-933.334 -2083.332,-2083.333 0,-1150.0012 933.333,-2083.3339 2083.332,-2083.3339 1150,0 2083.334,933.3327 2083.334,2083.3339 0,1149.999 -933.334,2083.333 -2083.334,2083.333 z"
     id="path907"
     style="fill:#258e25;fill-opacity:1;stroke-width:1041.66674805" />
</svg>
