<?xml version="1.0" encoding="UTF-8" standalone="no"?>
<!-- Generator: Adobe Illustrator 21.0.0, SVG Export Plug-In . SVG Version: 6.00 Build 0)  -->

<svg
   xmlns:dc="http://purl.org/dc/elements/1.1/"
   xmlns:cc="http://creativecommons.org/ns#"
   xmlns:rdf="http://www.w3.org/1999/02/22-rdf-syntax-ns#"
   xmlns:svg="http://www.w3.org/2000/svg"
   xmlns="http://www.w3.org/2000/svg"
   xmlns:sodipodi="http://sodipodi.sourceforge.net/DTD/sodipodi-0.dtd"
   xmlns:inkscape="http://www.inkscape.org/namespaces/inkscape"
   version="1.1"
   id="Слой_1"
   x="0px"
   y="0px"
   viewBox="0 0 24 24"
   style="image-rendering:optimizeQuality;shape-rendering:geometricPrecision;text-rendering:geometricPrecision"
   xml:space="preserve"
   sodipodi:docname="tabs-iconset-wallet.svg"
   width="24"
   height="24"
   inkscape:version="0.92.3 (2405546, 2018-03-11)"><metadata
     id="metadata21"><rdf:RDF><cc:Work
         rdf:about=""><dc:format>image/svg+xml</dc:format><dc:type
           rdf:resource="http://purl.org/dc/dcmitype/StillImage" /></cc:Work></rdf:RDF></metadata><defs
     id="defs19" /><sodipodi:namedview
     pagecolor="#ffffff"
     bordercolor="#666666"
     borderopacity="1"
     objecttolerance="10"
     gridtolerance="10"
     guidetolerance="10"
     inkscape:pageopacity="0"
     inkscape:pageshadow="2"
     inkscape:window-width="1366"
     inkscape:window-height="691"
     id="namedview17"
     showgrid="false"
     inkscape:zoom="9.8333333"
     inkscape:cx="-22.622493"
     inkscape:cy="3.9279613"
     inkscape:window-x="0"
     inkscape:window-y="0"
     inkscape:window-maximized="1"
     inkscape:current-layer="Слой_1" /><style
     type="text/css"
     id="style2">
	.st0{fill:#00AEEF;}
	.st1{fill:#FFFFFF;}
</style><style
     id="style2-675"
     type="text/css">
	.st0{fill:#00AEEF;}
	.st1{fill:#FFFFFF;}
</style><style
     type="text/css"
     id="style2-67">
	.st0{fill:#00AEEF;}
	.st1{fill:#FFFFFF;}
</style><style
     id="style2-6"
     type="text/css">
	.st0{fill:#3F58A7;}
	.st1{fill:#FFFFFF;}
</style><style
     type="text/css"
     id="style21">
	.st0{fill:#00AEEF;}
	.st1{fill:#FFFFFF;}
</style><style
     type="text/css"
     id="style60">
	.st0{fill:url(#SVGID_1_);}
	.st1{fill:#FFFFFF;}
</style><style
     type="text/css"
     id="style818">
	.st0{fill:#21409A;}
	.st1{fill:#FFFFFF;}
</style><rect
     style="opacity:1;fill:#258e25;fill-opacity:1;fill-rule:nonzero;stroke:none;stroke-width:7;stroke-linecap:round;stroke-linejoin:miter;stroke-miterlimit:4;stroke-dasharray:none;stroke-opacity:1;paint-order:stroke markers fill"
     id="rect893"
     width="24"
     height="24"
     x="0"
     y="0"
     ry="2.1355932"
     rx="2.1355932" /><rect
     rx="1.3220341"
     ry="1.3220336"
     y="1.000001"
     x="1.000001"
     height="21.999998"
     width="21.999998"
     id="rect895"
     style="opacity:1;fill:#ffffff;fill-opacity:1;fill-rule:nonzero;stroke:none;stroke-width:6.99999905;stroke-linecap:round;stroke-linejoin:miter;stroke-miterlimit:4;stroke-dasharray:none;stroke-opacity:1;paint-order:stroke markers fill" /><g
     style="display:none"
     id="Rounded"
     display="none"
     transform="translate(28.474576,27.976339)">
	<g
   id="ui_x5F_spec_x5F_header_copy_5">
	</g>
	<path
   style="display:inline"
   inkscape:connector-curvature="0"
   display="inline"
   d="M 20,4 H 4 C 2.89,4 2.01,4.89 2.01,6 L 2,18 c 0,1.11 0.89,2 2,2 h 16 c 1.11,0 2,-0.89 2,-2 V 6 C 22,4.89 21.11,4 20,4 Z M 19,18 H 5 C 4.45,18 4,17.55 4,17 v -5 h 16 v 5 c 0,0.55 -0.45,1 -1,1 z M 20,8 H 4 V 7 C 4,6.45 4.45,6 5,6 h 14 c 0.55,0 1,0.45 1,1 z"
   id="path828" />
</g><g
     style="display:none"
     id="Sharp"
     display="none"
     transform="translate(28.474576,27.976339)">
	<g
   id="ui_x5F_spec_x5F_header_copy_4">
	</g>
	<path
   style="display:inline"
   inkscape:connector-curvature="0"
   display="inline"
   d="M 22,4 H 2 V 20 H 22 Z M 20,18 H 4 V 12 H 20 Z M 20,8 H 4 V 6 h 16 z"
   id="path832" />
</g><g
     id="Outline"
     transform="matrix(0.76483051,0,0,0.76483051,2.822034,2.8220335)"
     style="fill:#258e25;fill-opacity:1;stroke-width:1.30747914">
	<g
   style="display:none;fill:#258e25;fill-opacity:1;stroke-width:1.30747914"
   id="ui_x5F_spec_x5F_header"
   display="none">
	</g>
	<path
   inkscape:connector-curvature="0"
   d="M 20,4 H 4 C 2.89,4 2.01,4.89 2.01,6 L 2,18 c 0,1.11 0.89,2 2,2 h 16 c 1.11,0 2,-0.89 2,-2 V 6 C 22,4.89 21.11,4 20,4 Z m 0,14 H 4 V 12 H 20 Z M 20,8 H 4 V 6 h 16 z"
   id="path836"
   style="fill:#258e25;fill-opacity:1;stroke-width:1.30747914" />
</g><g
     style="display:none"
     id="Duotone"
     display="none"
     transform="translate(28.474576,27.976339)">
	<g
   id="ui_x5F_spec_x5F_header_copy_2">
	</g>
	<g
   style="display:inline"
   display="inline"
   id="g846">
		<rect
   style="opacity:0.3"
   x="4"
   y="6"
   width="16"
   height="2"
   id="rect840" />
		<rect
   style="opacity:0.3"
   x="4"
   y="12"
   width="16"
   height="6"
   id="rect842" />
		<path
   inkscape:connector-curvature="0"
   d="M 20,4 H 4 C 2.89,4 2.01,4.89 2.01,6 L 2,18 c 0,1.11 0.89,2 2,2 h 16 c 1.11,0 2,-0.89 2,-2 V 6 C 22,4.89 21.11,4 20,4 Z m 0,14 H 4 V 12 H 20 Z M 20,8 H 4 V 6 h 16 z"
   id="path844" />
	</g>
</g><g
     style="display:none"
     id="Material"
     display="none"
     transform="translate(28.474576,27.976339)">
	<g
   id="ui_x5F_spec_x5F_header_copy">
	</g>
	<path
   style="display:inline"
   inkscape:connector-curvature="0"
   display="inline"
   d="M 20,4 H 4 C 2.89,4 2.01,4.89 2.01,6 L 2,18 c 0,1.11 0.89,2 2,2 h 16 c 1.11,0 2,-0.89 2,-2 V 6 C 22,4.89 21.11,4 20,4 Z m 0,14 H 4 V 12 H 20 Z M 20,8 H 4 V 6 h 16 z"
   id="path850" />
</g><style
     id="style836"
     type="text/css">
	.st0{fill:#4598C5;}
</style><style
     id="style860"
     type="text/css">
	.st0{fill:#4598C5;}
</style></svg>