<?xml version="1.0" encoding="UTF-8" standalone="no"?>
<svg
   xmlns:dc="http://purl.org/dc/elements/1.1/"
   xmlns:cc="http://creativecommons.org/ns#"
   xmlns:rdf="http://www.w3.org/1999/02/22-rdf-syntax-ns#"
   xmlns:svg="http://www.w3.org/2000/svg"
   xmlns="http://www.w3.org/2000/svg"
   xmlns:sodipodi="http://sodipodi.sourceforge.net/DTD/sodipodi-0.dtd"
   xmlns:inkscape="http://www.inkscape.org/namespaces/inkscape"
   width="81.92"
   height="55.421"
   viewBox="0 0 85334 57730"
   shape-rendering="geometricPrecision"
   text-rendering="geometricPrecision"
   image-rendering="optimizeQuality"
   fill-rule="evenodd"
   clip-rule="evenodd"
   version="1.1"
   id="svg12"
   sodipodi:docname="topleftlogo2.svg"
   inkscape:version="0.92.3 (2405546, 2018-03-11)">
  <metadata
     id="metadata16">
    <rdf:RDF>
      <cc:Work
         rdf:about="">
        <dc:format>image/svg+xml</dc:format>
        <dc:type
           rdf:resource="http://purl.org/dc/dcmitype/StillImage" />
      </cc:Work>
    </rdf:RDF>
  </metadata>
  <sodipodi:namedview
     pagecolor="#ffffff"
     bordercolor="#666666"
     borderopacity="1"
     objecttolerance="10"
     gridtolerance="10"
     guidetolerance="10"
     inkscape:pageopacity="0"
     inkscape:pageshadow="2"
     inkscape:window-width="1366"
     inkscape:window-height="691"
     id="namedview14"
     showgrid="false"
     inkscape:zoom="3.0110824"
     inkscape:cx="-12.501734"
     inkscape:cy="30.624588"
     inkscape:window-x="0"
     inkscape:window-y="0"
     inkscape:window-maximized="1"
     inkscape:current-layer="svg12" />
  <defs
     id="defs4">
    <style
       id="style2"><![CDATA[
    .fil0 {fill:white}
   ]]></style>
  </defs>
  <g
     style="clip-rule:evenodd;fill:#333333;fill-rule:evenodd;stroke-width:29.57003593;image-rendering:optimizeQuality;shape-rendering:geometricPrecision;text-rendering:geometricPrecision"
     aria-label="МИР"
     transform="matrix(35.227987,0,0,35.227987,103549.59,-171412.5)"
     id="g7960"
     inkscape:export-filename="/home/mir/Desktop/23.png"
     inkscape:export-xdpi="141.12854"
     inkscape:export-ydpi="141.12854">
    <path
       inkscape:connector-curvature="0"
       d="m -2359,6043 q 14.667,25.333 32.667,62 18,36.667 36.667,77.333 18.667,40 36.667,82 18.667,41.333 34,76.667 15.333,-35.333 33.333,-76.667 18,-42 36.667,-82 18.667,-40.667 36.667,-77.333 18,-36.667 32.667,-62 h 76 q 6,50.667 11.333,108 5.3333,56.667 9.3333,116.67 4.6667,59.333 8,120 4,60 6.6667,117.33 h -82.667 q -2.6666,-80.667 -6.6666,-166 -3.3334,-85.333 -10.667,-165.33 -7.3333,15.333 -17.333,36.667 -10,21.333 -21.333,46.667 -11.333,24.667 -23.333,51.333 -11.333,26.667 -22.667,52 -10.667,24.667 -20,46.667 -9.3333,21.333 -16,36.667 h -62.667 q -6.6667,-15.333 -16,-37.333 -9.3334,-22 -20.667,-46.667 -10.667,-25.333 -22.667,-52 -11.333,-26.667 -22.667,-51.333 -11.333,-24.667 -21.333,-46 -10,-22 -17.333,-36.667 -7.3334,80 -11.333,165.33 -3.3333,85.333 -6,166 h -82.667 q 2.6666,-57.333 6,-118.67 4,-61.333 8,-121.33 4.6666,-60.667 10,-117.33 5.3333,-56.667 11.333,-104.67 z"
       id="path7954"
       style="fill:#333333;stroke-width:29.57003593" />
    <path
       inkscape:connector-curvature="0"
       d="m -1869.8,6505 v -462 h 83.333 v 306.67 q 22.667,-36 51.333,-77.333 29.333,-42 60,-83.333 31.333,-41.333 62,-79.333 30.667,-38.667 57.333,-66.667 h 68.667 v 462 h -82.667 v -330.67 q -28,33.333 -59.333,75.333 -30.667,41.333 -60.667,86 -30,44 -58,88 -28,43.333 -50.667,81.333 z"
       id="path7956"
       style="fill:#333333;stroke-width:29.57003593" />
    <path
       inkscape:connector-curvature="0"
       d="m -1245.7,6038.4 q 100.67,0 154,36.667 54,36.667 54,114.67 0,40.667 -14.667,70 -14,28.667 -41.333,47.333 -27.333,18 -66.667,26.667 -39.333,8.6667 -90,8.6667 h -42 v 162.67 h -84 v -455.33 q 29.333,-6.6667 64.667,-8.6667 36,-2.6666 66,-2.6666 z m 6,72.667 q -32,0 -52.667,2 v 157.33 h 40.667 q 60.667,0 93.333,-16.667 32.667,-17.333 32.667,-64.667 0,-22.667 -8.6667,-38 -8.6666,-15.333 -24,-24 -15.333,-8.6666 -36.667,-12 -20.667,-4 -44.667,-4 z"
       id="path7958"
       style="fill:#333333;stroke-width:29.57003593" />
  </g>
  <g
     id="g7964"
     transform="matrix(17.501636,0,0,17.501636,343752.75,-100127.58)"
     style="clip-rule:evenodd;opacity:0.6;fill:#75db75;fill-rule:evenodd;stroke-width:59.51863098;image-rendering:optimizeQuality;shape-rendering:geometricPrecision;text-rendering:geometricPrecision;fill-opacity:1">
    <path
       id="path7962"
       transform="translate(3987.6,3336.5)"
       d="m -21246,2422.1 -672.67,789.72 672.67,-183.04 672.67,183.04 z"
       inkscape:connector-curvature="0"
       style="opacity:1;fill:#75db75;stroke-width:59.51863098;fill-opacity:1" />
  </g>
  <g
     id="g7968"
     transform="matrix(17.501636,0,0,17.501636,343752.75,-100127.58)"
     style="clip-rule:evenodd;opacity:0.6;fill:#46cf46;fill-rule:evenodd;stroke-width:59.51863098;image-rendering:optimizeQuality;shape-rendering:geometricPrecision;text-rendering:geometricPrecision;fill-opacity:1">
    <path
       id="path7966"
       transform="translate(3987.6,3336.5)"
       d="m -21246,3028.8 -672.67,183.04 672.67,275.47 672.67,-275.47 z"
       inkscape:connector-curvature="0"
       style="opacity:1;fill:#46cf46;stroke-width:59.51863098;fill-opacity:1" />
  </g>
  <g
     id="g7972"
     transform="matrix(17.501636,0,0,17.501636,343752.75,-100127.58)"
     style="clip-rule:evenodd;opacity:0.6;fill:#2dad2d;fill-rule:evenodd;stroke-width:59.51863098;image-rendering:optimizeQuality;shape-rendering:geometricPrecision;text-rendering:geometricPrecision;fill-opacity:1">
    <path
       id="path7970"
       transform="translate(3987.6,3336.5)"
       d="m -21918,3211.8 672.67,733.65 672.67,-733.65 -672.67,275.47 z"
       inkscape:connector-curvature="0"
       style="opacity:1;fill:#2dad2d;stroke-width:59.51863098;fill-opacity:1" />
  </g>
  <g
     id="g7976"
     transform="matrix(17.501636,0,0,17.501636,343752.75,-100127.58)"
     style="clip-rule:evenodd;opacity:0.6;fill:#258e25;fill-rule:evenodd;stroke-width:59.51863098;image-rendering:optimizeQuality;shape-rendering:geometricPrecision;text-rendering:geometricPrecision;fill-opacity:1">
    <path
       id="path7974"
       transform="translate(3987.6,3336.5)"
       d="m -21918,3211.8 672.67,1340.5 672.67,-1340.5 -672.67,733.65 z"
       inkscape:connector-curvature="0"
       style="opacity:1;fill:#258e25;stroke-width:59.51863098;fill-opacity:1" />
  </g>
  <g
     id="g7980"
     transform="matrix(-17.501636,0,0,-17.501636,-260297.95,138704.87)"
     style="clip-rule:evenodd;opacity:0.6;fill:#258e25;fill-rule:evenodd;stroke-width:59.51863098;image-rendering:optimizeQuality;shape-rendering:geometricPrecision;text-rendering:geometricPrecision;fill-opacity:1">
    <path
       id="path7978"
       transform="rotate(180,-20190,5176.7)"
       d="m -23795,3805.1 672.67,789.72 672.67,-789.72 -672.67,183.04 z"
       inkscape:connector-curvature="0"
       style="opacity:1;fill:#258e25;stroke-width:59.51863098;fill-opacity:1" />
  </g>
  <g
     id="g7984"
     transform="matrix(-17.501636,0,0,-17.501636,-260297.95,138704.87)"
     style="clip-rule:evenodd;opacity:0.6;fill:#2dad2d;fill-rule:evenodd;stroke-width:59.51863098;image-rendering:optimizeQuality;shape-rendering:geometricPrecision;text-rendering:geometricPrecision;fill-opacity:1">
    <path
       id="path7982"
       transform="rotate(180,-20190,5176.7)"
       d="m -23122,3529.7 -672.67,275.47 672.67,183.04 672.67,-183.04 z"
       inkscape:connector-curvature="0"
       style="opacity:1;fill:#2dad2d;stroke-width:59.51863098;fill-opacity:1" />
  </g>
  <g
     id="g7988"
     transform="matrix(-17.501636,0,0,-17.501636,-260297.95,138704.87)"
     style="clip-rule:evenodd;opacity:0.6;fill:#46cf46;fill-rule:evenodd;stroke-width:59.51863098;image-rendering:optimizeQuality;shape-rendering:geometricPrecision;text-rendering:geometricPrecision;fill-opacity:1">
    <path
       id="path7986"
       transform="rotate(180,-20190,5176.7)"
       d="m -23122,3071.5 -672.67,733.65 672.67,-275.47 672.67,275.47 z"
       inkscape:connector-curvature="0"
       style="opacity:1;fill:#46cf46;stroke-width:59.51863098;fill-opacity:1" />
  </g>
  <g
     id="g7992"
     transform="matrix(-17.501636,0,0,-17.501636,-260297.95,138704.87)"
     style="clip-rule:evenodd;opacity:0.6;fill:#75db75;fill-rule:evenodd;stroke-width:59.51863098;image-rendering:optimizeQuality;shape-rendering:geometricPrecision;text-rendering:geometricPrecision;fill-opacity:1">
    <path
       id="path7990"
       transform="rotate(180,-20190,5176.7)"
       d="m -23122,2464.6 -672.67,1340.5 672.67,-733.65 672.67,733.65 z"
       inkscape:connector-curvature="0"
       style="opacity:1;fill:#75db75;stroke-width:59.51863098;fill-opacity:1" />
  </g>
</svg>
