<?xml version="1.0" encoding="UTF-8" standalone="no"?>
<!-- Roman Inozemtsev: https://github.com/mir-one/  -->

<svg
   xmlns:dc="http://purl.org/dc/elements/1.1/"
   xmlns:cc="http://creativecommons.org/ns#"
   xmlns:rdf="http://www.w3.org/1999/02/22-rdf-syntax-ns#"
   xmlns:svg="http://www.w3.org/2000/svg"
   xmlns="http://www.w3.org/2000/svg"
   xmlns:sodipodi="http://sodipodi.sourceforge.net/DTD/sodipodi-0.dtd"
   xmlns:inkscape="http://www.inkscape.org/namespaces/inkscape"
   version="1.1"
   id="Layer_1"
   x="0px"
   y="0px"
   viewBox="0 0 64 64"
   xml:space="preserve"
   sodipodi:docname="wB-bg-TN.svg"
   width="64"
   height="64"
   inkscape:version="0.92.3 (2405546, 2018-03-11)"><metadata
   id="metadata85"><rdf:RDF><cc:Work
       rdf:about=""><dc:format>image/svg+xml</dc:format><dc:type
         rdf:resource="http://purl.org/dc/dcmitype/StillImage" /></cc:Work></rdf:RDF></metadata><defs
   id="defs83">
	
	
	

		
		
		
		
		
		
		
		
		
		
		
		
		
		
	
		
		
		
		
		
		
	</defs><sodipodi:namedview
   pagecolor="#ffffff"
   bordercolor="#666666"
   borderopacity="1"
   objecttolerance="10"
   gridtolerance="10"
   guidetolerance="10"
   inkscape:pageopacity="0"
   inkscape:pageshadow="2"
   inkscape:window-width="1366"
   inkscape:window-height="691"
   id="namedview81"
   showgrid="false"
   inkscape:zoom="3.5223881"
   inkscape:cx="-48.76204"
   inkscape:cy="46.909914"
   inkscape:window-x="0"
   inkscape:window-y="0"
   inkscape:window-maximized="1"
   inkscape:current-layer="Layer_1" />
<style
   type="text/css"
   id="style2">
	.st0{fill:#288D44;}
	.st1{fill:none;}
	.st2{fill:#206835;}
	.st3{fill:#FFFFFF;}
	.st4{fill:#58595B;}
</style>

<style
   id="style2-3"
   type="text/css">
	.st0{fill:#3F61AC;}
	.st1{fill:#FFFFFF;}
	.st2{fill:#2B388F;}
	.st3{fill:#58595B;}
</style><style
   type="text/css"
   id="style2-6">
	.st0{fill:#F79420;}
	.st1{fill:#D57E28;}
	.st2{fill:#FFFFFF;}
</style><circle
   style="opacity:1;fill:#333333;fill-opacity:1;fill-rule:nonzero;stroke:none;stroke-width:3;stroke-linecap:round;stroke-linejoin:bevel;stroke-miterlimit:4;stroke-dasharray:none;stroke-dashoffset:0;stroke-opacity:1;paint-order:stroke markers fill"
   id="path4778"
   cx="32"
   cy="32"
   r="32" /><path
   style="fill:#ffffff;stroke-width:0.99999994"
   d="M 32.04724,2.0000001 C 15.489097,2.0000001 1.9999996,15.417159 1.9999996,32.00091 1.9999996,48.58466 15.396437,62 31.95458,62 c 4,0 7.81359,-0.838868 11.25545,-2.236375 C 50.78335,56.782276 56.77696,50.727141 59.76889,43.27377 61.16424,39.826586 62,36.007097 62,32.00091 62,15.417159 48.60538,2.0000001 32.04724,2.0000001 Z m -0.0927,2.2363752 c 15.25581,0 27.71984,12.3919567 27.71984,27.7645347 0,3.354017 -0.65007,6.520972 -1.67333,9.50232 -2.80494,7.639705 -8.89204,13.694842 -16.55887,16.489856 -2.97674,1.118005 -6.1388,1.677736 -9.48764,1.677736 -15.255813,0 -27.7216594,-12.390502 -27.7216594,-27.669912 0,-15.279411 12.4658464,-27.7645348 27.7216594,-27.7645347 z"
   id="path4-6"
   inkscape:connector-curvature="0" /><g
   id="g4899"
   style="fill:#258e25;fill-opacity:1;stroke-width:1.09861112"
   transform="matrix(0.9102402,0,0,0.9102402,1.9418458,1.6232618)"><path
     style="fill:#258e25;fill-opacity:1;stroke-width:1.09861112"
     inkscape:connector-curvature="0"
     id="path48"
     d="m 35.4,11.5 c 0,0 0,0.1 0,0 0.2,0.1 0.3,0.1 0.4,0.1 0.1,0 0.2,0.1 0.3,0.1 0.1,0 0.2,0 0.2,0.1 0.1,0 0.3,0.1 0.4,0.1 0.1,0 0.2,0 0.2,0 0.1,0 0.2,0.1 0.3,0.1 0.2,0.1 0.5,0.2 0.7,0.3 0.2,0.1 0.3,0.1 0.5,0.2 0.1,0.1 0.3,0.1 0.4,0.2 0.2,0.1 0.5,0.2 0.7,0.3 0,0 0.1,0 0.1,0.1 0,0.1 0.1,0.2 0.1,0.3 0,0 0,0.1 0,0.1 0.1,0.2 0.1,0.4 0.2,0.6 0,0 0,0 0,0.1 0,0.1 0.1,0.2 0.2,0.1 0.1,0 0.2,-0.1 0.3,-0.1 0.2,0 0.4,0 0.5,-0.1 0.1,0 0.2,0 0.3,0 0.1,0 0.2,0 0.3,0.1 0.1,0.1 0.2,0.1 0.3,0.2 0.1,0.1 0.3,0.2 0.4,0.3 0.2,0.1 0.3,0.3 0.5,0.4 0.1,0.1 0.2,0.2 0.3,0.3 0.2,0.2 0.4,0.4 0.6,0.6 0.2,0.2 0.4,0.4 0.6,0.6 0.2,0.2 0.4,0.4 0.6,0.6 0.1,0.1 0.2,0.2 0.3,0.3 0.1,0.1 0.1,0.2 0.2,0.3 0,0 0,0 0,0 0.1,0.1 0.2,0.2 0.3,0.3 0.1,0.1 0.1,0.1 0.1,0.2 0,0 0,0 0,0.1 0.1,0.1 0.1,0.2 0.2,0.3 0.1,0.1 0.2,0.2 0.2,0.3 0.1,0.2 0.2,0.3 0.3,0.5 0.1,0.1 0.2,0.3 0.3,0.4 0.1,0.2 0.3,0.5 0.4,0.7 0.1,0.1 0.2,0.3 0.2,0.4 0,0.1 0.1,0.1 0.1,0.2 0.1,0.1 0.1,0.3 0.2,0.4 0.1,0.2 0.2,0.4 0.2,0.6 0,0.1 -0.1,0.1 -0.1,0.2 -0.1,0.1 -0.1,0.3 -0.2,0.4 0,0.1 -0.1,0.2 -0.1,0.3 0.1,0 0.2,0.1 0.4,0.1 0.2,0.1 0.3,0.1 0.5,0.2 0.1,0 0.1,0 0.2,0.1 0.1,0.1 0.1,0.2 0.2,0.3 0.1,0.1 0.1,0.3 0.1,0.4 0,0.1 0.1,0.3 0.1,0.4 0,0.1 0.1,0.2 0.1,0.2 0,0.1 0.1,0.2 0.1,0.3 0,0.1 0.1,0.2 0.1,0.3 0,0.1 0,0.2 0.1,0.3 0,0.1 0.1,0.2 0.1,0.4 0,0.1 0,0.1 0,0.2 0,0.2 0.1,0.3 0.1,0.5 0,0.1 0,0.2 0.1,0.2 0,0.1 0.1,0.3 0.1,0.4 0,0.1 0,0.2 0.1,0.2 0,0.2 0,0.3 0.1,0.5 0,0.2 0.1,0.3 0.1,0.5 0,0.1 0,0.3 0.1,0.4 0,0.1 0.1,0.3 0.1,0.4 0,0.1 0,0.2 0,0.2 0,0.2 0,0.3 0,0.5 0,0.1 0,0.1 0,0.2 0,0.1 0,0.2 0,0.3 0.1,0.1 0,0.2 0,0.3 0,0.7 0,1.3 0,2 0,0.2 -0.1,0.3 -0.2,0.4 -0.1,0.1 -0.3,0.3 -0.4,0.4 0,0 0,0.1 0,0.1 0.2,0.2 0.4,0.4 0.5,0.6 0,0 0,0.1 0,0.1 0,0.8 0,1.5 0,2.3 -0.1,0.1 0,0.3 -0.1,0.5 0,0 0,0 0,0 0,0.2 0,0.3 0,0.5 0,0.1 -0.1,0.2 -0.1,0.3 0,0 0,0 0,0 0,0.2 0,0.4 -0.1,0.6 0,0.2 -0.1,0.3 -0.1,0.5 0,0.1 0,0.2 0,0.3 0,0.2 -0.1,0.3 -0.1,0.5 0,0.1 0,0.2 0,0.2 -0.1,0.2 0,0.4 -0.1,0.6 0,0.1 0,0.2 -0.1,0.2 0,0.1 0,0.1 0,0.2 0,0.1 -0.1,0.3 -0.1,0.4 0,0.1 -0.1,0.2 -0.1,0.3 0,0.1 0,0.1 -0.1,0.2 0,0.1 -0.1,0.2 -0.1,0.3 0,0.1 0,0.2 -0.1,0.3 0,0.1 -0.1,0.3 -0.1,0.4 0,0.1 -0.1,0.2 -0.1,0.3 0,0.1 -0.1,0.2 -0.1,0.3 0,0.1 -0.1,0.2 -0.1,0.3 0,0.1 -0.1,0.1 -0.2,0.2 -0.2,0.1 -0.5,0.1 -0.7,0.2 -0.1,0 -0.2,0.1 -0.2,0.1 0,0.1 0.1,0.2 0.1,0.3 0.1,0.1 0.1,0.3 0.2,0.4 0.1,0.2 0.1,0.4 0,0.6 -0.1,0.1 -0.2,0.3 -0.2,0.4 0,0.1 -0.1,0.1 -0.1,0.2 -0.1,0.1 -0.2,0.3 -0.2,0.4 -0.1,0.1 -0.2,0.3 -0.2,0.4 0,-0.5 0,-0.3 -0.1,-0.2 -0.1,0.1 -0.1,0.2 -0.2,0.3 0,0 0,0.1 -0.1,0.1 -0.1,0.1 -0.2,0.2 -0.2,0.3 -0.1,0.2 -0.3,0.4 -0.4,0.6 -0.1,0.1 -0.1,0.1 -0.2,0.2 -0.1,0.1 -0.1,0.2 -0.2,0.3 0,0 0,0 0,0 -0.1,0.1 -0.2,0.2 -0.3,0.3 -0.1,0.1 -0.2,0.2 -0.3,0.4 0,0 -0.1,0 -0.1,0.1 -0.1,0.2 -0.3,0.3 -0.4,0.5 -0.2,0.2 -0.4,0.4 -0.6,0.6 -0.2,0.2 -0.4,0.4 -0.6,0.6 -0.1,0.1 -0.3,0.3 -0.5,0.4 -0.1,0.1 -0.2,0.2 -0.4,0.3 -0.2,0.1 -0.3,0.2 -0.5,0.4 -0.1,0.1 -0.2,0.1 -0.3,0.2 -0.1,0.1 -0.2,0.1 -0.3,0.2 -0.1,0 -0.1,0.1 -0.2,0.1 -0.1,0.1 -0.3,0 -0.4,0 -0.1,0 -0.1,0 -0.2,0 -0.1,0 -0.3,0 -0.4,-0.1 -0.1,0 -0.2,-0.1 -0.3,-0.1 -0.1,0 -0.1,0 -0.1,0.1 0,0.1 0,0.1 0,0.2 0,0.1 -0.1,0.3 -0.1,0.4 0,0.1 0,0.1 0,0.2 0,0.1 0,0.2 -0.1,0.3 0,0 0,0.1 0,0.1 -0.2,0.1 -0.4,0.2 -0.6,0.3 -0.1,0.1 -0.3,0.1 -0.5,0.2 -0.2,0.1 -0.4,0.2 -0.6,0.2 -0.1,0 -0.2,0.1 -0.4,0.1 -0.1,0 -0.3,0.1 -0.4,0.1 -0.1,0 -0.2,0.1 -0.4,0.1 -0.1,0 -0.3,0.1 -0.4,0.1 -0.1,0 -0.2,0.1 -0.3,0.1 -0.1,0 -0.2,0 -0.2,0 -0.2,0 -0.3,0.1 -0.5,0.1 -0.6,0.1 -1.2,0 -1.8,0 -0.9,0 -1.9,0 -2.8,0 -0.1,0 -0.3,0 -0.4,-0.1 -0.1,0 -0.1,0 -0.2,-0.1 -0.1,0 -0.2,0 -0.3,0 -0.1,0 -0.1,-0.1 -0.2,-0.1 -0.1,0 -0.1,0 -0.2,0 -0.2,-0.1 -0.4,-0.1 -0.6,-0.2 -0.1,0 -0.2,0 -0.3,-0.1 -0.1,0 -0.3,-0.1 -0.4,-0.1 -0.2,-0.1 -0.3,-0.1 -0.5,-0.2 -0.2,-0.1 -0.4,-0.1 -0.6,-0.2 -0.2,-0.1 -0.3,-0.2 -0.5,-0.3 -0.1,0 -0.1,0 -0.2,-0.1 -0.1,0 -0.1,-0.1 -0.1,-0.2 -0.1,-0.2 0,-0.4 -0.1,-0.6 0,-0.1 0,-0.2 -0.1,-0.2 0,-0.1 0,-0.1 0,-0.2 0,-0.1 -0.1,-0.1 -0.2,0 0,0 0,0 0,0 -0.1,0 -0.2,0 -0.4,0 -0.2,0 -0.4,0.1 -0.5,0.1 -0.2,0 -0.3,0 -0.5,-0.1 C 24.1,52.4 23.8,52.2 23.6,52 23.4,51.8 23.1,51.6 22.9,51.4 22.8,51.3 22.6,51.2 22.5,51.1 22.4,51 22.3,50.9 22.3,50.9 22.1,50.7 21.8,50.4 21.6,50.2 21.5,50.1 21.4,50 21.3,49.9 21.2,49.8 21.1,49.7 21,49.5 20.9,49.4 20.9,49.3 20.8,49.3 20.7,49.2 20.6,49 20.4,48.9 20.3,48.8 20.2,48.7 20.1,48.6 20,48.5 20,48.4 19.9,48.3 19.8,48.2 19.7,48.1 19.7,48 c -0.1,-0.1 -0.1,-0.2 -0.2,-0.3 0,-0.1 -0.1,-0.1 -0.1,-0.2 0,-0.1 -0.1,-0.1 -0.1,-0.2 0,-0.1 -0.1,-0.2 -0.1,-0.2 C 19.1,47 19.1,46.9 19,46.8 18.9,46.7 18.9,46.6 18.8,46.5 18.7,46.4 18.6,46.2 18.5,46 c 0,-0.1 -0.1,-0.2 -0.2,-0.3 0,-0.1 -0.1,-0.2 -0.2,-0.3 C 18,45.2 18,45 18,44.8 c 0,-0.2 0.1,-0.3 0.2,-0.4 0,-0.1 0.1,-0.2 0.1,-0.2 0,-0.1 0,-0.1 0.1,-0.2 -0.3,-0.1 -0.7,-0.2 -1.1,-0.3 -0.1,-0.1 -0.1,-0.3 -0.2,-0.5 -0.1,-0.3 -0.2,-0.5 -0.3,-0.8 0,-0.1 -0.1,-0.3 -0.1,-0.4 0,-0.1 -0.1,-0.2 -0.1,-0.3 0,0 0,-0.1 0,-0.1 0,-0.2 -0.1,-0.3 -0.1,-0.5 0,-0.1 -0.1,-0.3 -0.1,-0.4 0,-0.1 -0.1,-0.2 -0.1,-0.4 0,-0.1 0,-0.1 0,-0.2 0,-0.2 0,-0.3 -0.1,-0.5 -0.1,-0.2 -0.1,-0.3 -0.1,-0.5 0,-0.2 -0.1,-0.3 -0.1,-0.5 0,-0.1 0,-0.2 0,-0.4 0,-0.1 0,-0.2 -0.1,-0.3 0,0 0,0 0,-0.1 0,-0.1 0,-0.3 0,-0.4 0,-0.1 0,-0.2 0,-0.3 0,-0.1 -0.1,-0.3 -0.1,-0.4 0,-0.1 0,-0.2 0,-0.3 0,0 0,-0.1 0,-0.1 0,-0.6 0,-1.3 0,-1.9 0,-0.1 0,-0.1 0,-0.2 0,-0.2 0,-0.3 0.2,-0.4 0.1,-0.1 0.3,-0.3 0.4,-0.4 0,0 0,-0.1 0,-0.1 -0.2,-0.2 -0.4,-0.4 -0.5,-0.5 0,0 0,-0.1 0,-0.1 0,-0.7 0,-1.3 0,-2 0,-0.1 0,-0.3 0,-0.4 0,0 0,-0.1 0,-0.1 0,-0.1 0,-0.2 0,-0.3 0,0 0,0 0,0 0,-0.1 0,-0.3 0,-0.4 0,-0.1 0.1,-0.3 0.1,-0.4 0,0 0,0 0,-0.1 0,-0.1 0,-0.3 0.1,-0.4 0,0 0,0 0,0 0,-0.2 0.1,-0.3 0.1,-0.5 0,-0.1 0,-0.2 0,-0.3 0,-0.1 0,-0.1 0,-0.2 0,-0.1 0.1,-0.3 0.1,-0.4 0,-0.1 0,-0.2 0,-0.3 0,-0.2 0.1,-0.4 0.1,-0.6 0,-0.2 0.1,-0.3 0.1,-0.5 0,-0.1 0.1,-0.2 0.1,-0.3 0,-0.1 0.1,-0.2 0.1,-0.3 0,-0.1 0.1,-0.2 0.1,-0.3 0,-0.1 0.1,-0.2 0.1,-0.3 0,-0.1 0.1,-0.2 0.1,-0.3 0,-0.1 0.1,-0.2 0.1,-0.4 0,0 0,0 0,0 0.1,-0.2 0.2,-0.3 0.2,-0.5 0,-0.1 0.1,-0.1 0.1,-0.2 0.4,-0.1 0.7,-0.2 1,-0.3 -0.1,-0.1 -0.1,-0.2 -0.1,-0.3 -0.1,-0.1 -0.1,-0.3 -0.2,-0.4 0,0 0,0 0,0 0,-0.2 0,-0.3 0,-0.5 0.1,-0.2 0.2,-0.4 0.3,-0.6 0.1,-0.2 0.2,-0.3 0.3,-0.5 0.1,-0.1 0.1,-0.3 0.2,-0.4 0,-0.1 0.1,-0.1 0.2,-0.2 0.1,-0.1 0.1,-0.2 0.2,-0.3 0,-0.1 0.1,-0.1 0.1,-0.2 0.1,-0.1 0.1,-0.2 0.2,-0.3 0,-0.1 0.1,-0.1 0.1,-0.2 0.2,-0.2 0.3,-0.4 0.5,-0.6 0.1,-0.1 0.2,-0.2 0.2,-0.3 0.1,-0.1 0.2,-0.2 0.3,-0.4 0.1,-0.2 0.3,-0.3 0.4,-0.5 0.1,-0.1 0.2,-0.2 0.3,-0.3 0.2,-0.3 0.4,-0.4 0.6,-0.7 0.2,-0.2 0.4,-0.4 0.6,-0.6 0.1,-0.1 0.3,-0.2 0.4,-0.4 0.1,-0.1 0.2,-0.1 0.2,-0.2 0.1,-0.1 0.2,-0.2 0.3,-0.3 0.1,-0.1 0.3,-0.2 0.4,-0.3 0.1,-0.1 0.2,-0.2 0.3,-0.3 0.2,-0.2 0.4,-0.2 0.6,-0.1 0.1,0 0.1,0 0.2,0 0.1,0 0.2,0 0.4,0.1 0.1,0 0.2,0.1 0.3,0.1 0.1,0 0.1,0 0.1,-0.1 0,-0.1 0,-0.2 0.1,-0.3 0,-0.2 0.1,-0.3 0.1,-0.5 0,-0.1 0.1,-0.2 0.1,-0.3 0.1,-0.1 0.2,-0.1 0.3,-0.2 0.2,-0.1 0.4,-0.2 0.5,-0.2 0.1,-0.1 0.2,-0.1 0.3,-0.2 0.1,0 0.2,-0.1 0.2,-0.1 0.2,-0.1 0.4,-0.2 0.6,-0.2 0.1,0 0.3,-0.1 0.4,-0.1 0.1,0 0.1,-0.1 0.2,-0.1 0.1,0 0.1,0 0.2,-0.1 0.1,0 0.3,0 0.4,-0.1 0.1,0 0.1,-0.1 0.2,-0.1 0.1,0 0.1,0 0.2,-0.1 0.1,0 0.2,0 0.3,0 0.1,0 0.2,-0.1 0.3,-0.1 2.1,0.1 3.6,0.1 5.2,0.1 z m 10.4,12.4 c -0.1,-0.2 0.1,-0.4 0.1,-0.6 0,-0.1 0.1,-0.2 0.2,-0.4 0,-0.1 0,-0.1 0.1,-0.2 0,0 0,0 0,0 -0.1,-0.1 -0.1,-0.3 -0.2,-0.4 0,-0.1 -0.1,-0.2 -0.1,-0.2 -0.1,-0.2 -0.2,-0.3 -0.3,-0.5 -0.1,-0.1 -0.1,-0.2 -0.2,-0.3 -0.1,-0.1 -0.1,-0.2 -0.2,-0.3 0,-0.1 -0.1,-0.1 -0.1,-0.2 -0.1,-0.1 -0.1,-0.2 -0.2,-0.3 0,-0.1 -0.1,-0.1 -0.2,-0.2 0,-0.1 -0.1,-0.1 -0.1,-0.2 C 44.5,20 44.4,19.9 44.4,19.8 44.3,19.7 44.2,19.5 44.1,19.4 44,19.3 43.9,19.2 43.9,19.1 43.7,18.9 43.6,18.7 43.4,18.5 43.3,18.4 43.1,18.3 43,18.1 42.9,18 42.8,17.9 42.7,17.8 42.5,17.6 42.3,17.4 42.1,17.2 41.9,17.1 41.8,16.9 41.6,16.8 41.5,16.7 41.4,16.6 41.2,16.5 41.1,16.4 40.9,16.3 40.8,16.2 40.7,16.2 40.7,16.1 40.6,16.1 40.5,16 40.5,16 40.4,16 c -0.1,-0.1 -0.2,-0.2 -0.3,-0.1 0,0 -0.1,0 -0.1,0 -0.1,0 -0.2,0 -0.3,0 -0.1,0 -0.2,0.1 -0.3,0.1 -0.1,0 -0.2,0 -0.3,0 0,0 -0.1,0 -0.1,0 0,0 0,-0.1 0,-0.1 0,-0.1 -0.1,-0.3 -0.1,-0.4 0,-0.1 -0.1,-0.3 -0.1,-0.5 -0.1,-0.1 -0.3,-0.1 -0.4,-0.2 -0.1,0 -0.2,-0.1 -0.3,-0.1 -0.1,0 -0.2,-0.1 -0.3,-0.1 -0.1,-0.1 -0.3,-0.1 -0.4,-0.2 -0.1,0 -0.3,-0.1 -0.4,-0.1 0,0 -0.1,0 -0.1,-0.1 -0.1,0 -0.2,-0.1 -0.3,-0.1 -0.2,0 -0.3,-0.1 -0.5,-0.1 -0.1,0 -0.3,-0.1 -0.4,-0.1 -0.2,0 -0.4,-0.1 -0.6,-0.1 -0.2,0 -0.4,-0.1 -0.6,-0.1 -0.2,0 -0.3,0 -0.5,0 -0.6,0 -1.3,0 -1.9,0.1 -0.2,0 -0.3,0 -0.5,0 0,0 0,0 0,0 -0.1,0 -0.3,0.1 -0.4,0.1 -0.1,0 -0.3,0 -0.5,0.1 -0.1,0 -0.3,0.1 -0.4,0.1 -0.1,0 -0.2,0 -0.3,0.1 -0.2,0.1 -0.3,0.1 -0.5,0.2 -0.1,0 -0.2,0.1 -0.4,0.1 -0.1,0.1 -0.3,0.1 -0.4,0.2 -0.1,0 -0.2,0.1 -0.3,0.1 -0.2,0.1 -0.4,0.2 -0.6,0.3 -0.1,0 -0.1,0.1 -0.1,0.2 0,0.1 0,0.2 0,0.3 0,0.1 0,0.1 -0.1,0.2 0,0.1 -0.1,0.1 -0.1,0.2 0,0.1 0,0.1 0,0.2 0,0 0,0 -0.1,0 -0.2,0 -0.4,0 -0.6,0 -0.2,0 -0.3,-0.1 -0.5,-0.1 0,0 -0.1,0 -0.1,0 -0.2,0.1 -0.3,0.2 -0.5,0.3 -0.2,0.1 -0.4,0.2 -0.5,0.4 -0.2,0.1 -0.3,0.3 -0.5,0.4 -0.1,0.1 -0.3,0.2 -0.4,0.3 -0.1,0.1 -0.3,0.3 -0.4,0.4 -0.2,0.2 -0.4,0.4 -0.6,0.6 -0.1,0.1 -0.3,0.3 -0.4,0.4 -0.1,0.2 -0.3,0.3 -0.4,0.5 -0.1,0.1 -0.1,0.2 -0.2,0.3 -0.1,0.1 -0.2,0.3 -0.3,0.4 -0.2,0.2 -0.2,0.4 -0.4,0.6 0,0 0,0.1 -0.1,0.1 -0.1,0.1 -0.1,0.2 -0.2,0.3 C 21,20.9 21,21 21,21 c -0.1,0.1 -0.1,0.2 -0.2,0.3 -0.1,0.1 -0.1,0.2 -0.2,0.3 -0.1,0.1 -0.2,0.3 -0.3,0.4 -0.1,0.1 -0.1,0.3 -0.2,0.4 0,0.1 -0.1,0.2 -0.1,0.3 0,0.1 0,0.1 0,0.1 0,0.1 0.1,0.2 0.1,0.4 0,0.1 0,0.2 0.1,0.2 0.1,0.1 0.1,0.3 0.1,0.4 0,0 0,0 0,0 -0.1,0 -0.2,0.1 -0.3,0.1 -0.2,0.1 -0.3,0.1 -0.5,0.2 -0.1,0 -0.2,0.1 -0.2,0.2 -0.1,0.2 -0.2,0.4 -0.2,0.6 -0.1,0.2 -0.1,0.3 -0.2,0.5 0,0.1 0,0.1 0,0.2 0,0.1 -0.1,0.3 -0.1,0.4 0,0.1 0,0.1 0,0.2 -0.1,0.2 -0.1,0.3 -0.2,0.4 0,0.2 -0.1,0.3 -0.1,0.5 0,0.1 0,0.1 0,0.2 0,0.1 -0.1,0.3 -0.1,0.4 0,0.1 0,0.2 0,0.3 0,0.2 -0.1,0.3 -0.1,0.5 0,0.1 0,0.3 -0.1,0.4 0,0.2 -0.1,0.3 -0.1,0.5 0,0.2 -0.1,0.3 -0.1,0.5 0,0.2 0,0.4 -0.1,0.6 0,0.1 0,0.3 0,0.4 0,0.1 0,0.3 0,0.4 0,0.2 0,0.4 0,0.6 0,0.2 0,0.4 0,0.6 0,0 0,0.1 0,0.1 0.2,0.2 0.4,0.4 0.6,0.6 0.1,0.1 0.1,0.3 0,0.3 -0.2,0.2 -0.4,0.4 -0.5,0.6 0,0 -0.1,0.1 -0.1,0.1 0,0.2 0,0.5 0,0.7 0,0.2 0,0.4 0,0.5 0,0.1 0,0.3 0,0.4 0,0.2 0,0.5 0.1,0.7 0,0.1 0,0.3 0,0.4 0,0.1 0,0.2 0,0.3 0,0.1 0.1,0.3 0.1,0.4 0,0 0,0 0,0 0,0.2 0.1,0.3 0.1,0.5 0,0.1 0,0.2 0,0.3 0,0.1 0,0.1 0,0.2 0,0.1 0.1,0.2 0.1,0.3 0,0.1 0,0.1 0,0.2 0,0.1 0,0.1 0.1,0.2 0,0.1 0.1,0.2 0.1,0.4 0,0.1 0,0.2 0.1,0.3 0,0.1 0.1,0.2 0.1,0.3 0,0.2 0.1,0.3 0.2,0.5 0,0 0,0.1 0,0.2 0,0.1 0,0.1 0,0.2 0,0.1 0.1,0.3 0.2,0.4 0,0.1 0,0.2 0.1,0.3 0.1,0.1 0.1,0.2 0.1,0.4 0,0.1 0,0.1 0.1,0.2 0.1,0.1 0.2,0.1 0.2,0.1 0.2,0.1 0.5,0.1 0.7,0.2 0.1,0 0.1,0.1 0.1,0.1 0,0.2 -0.1,0.3 -0.1,0.5 0,0.1 -0.1,0.2 -0.2,0.4 0,0.1 0,0.1 -0.1,0.2 0,0.1 0,0.1 0.1,0.2 0.1,0.2 0.3,0.5 0.4,0.7 0.1,0.1 0.1,0.2 0.2,0.3 0.1,0.2 0.2,0.3 0.3,0.5 0.1,0.1 0.1,0.2 0.2,0.3 0.1,0.1 0.1,0.3 0.2,0.4 0.1,0.2 0.2,0.3 0.3,0.5 0.1,0.1 0.2,0.3 0.3,0.4 0.1,0.1 0.1,0.1 0.2,0.2 0.1,0.1 0.2,0.3 0.3,0.4 0.2,0.2 0.3,0.3 0.5,0.5 0.1,0.2 0.3,0.3 0.4,0.5 0.3,0.3 0.6,0.6 1,0.9 0.2,0.2 0.4,0.4 0.6,0.6 0,0 0.1,0.1 0.1,0.1 0.1,0.1 0.2,0.1 0.3,0.2 0.1,0.1 0.1,0.1 0.2,0.2 0.1,0.1 0.2,0.1 0.3,0.2 0.2,0.2 0.3,0.1 0.5,0.1 0.2,0 0.3,-0.1 0.5,-0.1 0.1,0 0.2,0 0.3,0 0,0 0.1,0 0.1,0 0,0.1 0,0.1 0,0.2 0,0.1 0.1,0.2 0.1,0.4 0,0.1 0,0.2 0.1,0.3 0,0.1 0,0.2 0.1,0.2 0.1,0 0.2,0.1 0.3,0.2 0.1,0 0.2,0.1 0.3,0.1 0.2,0.1 0.4,0.2 0.6,0.2 0.1,0 0.2,0.1 0.3,0.1 0.1,0 0.3,0.1 0.4,0.1 0.2,0.1 0.4,0.1 0.5,0.1 0.1,0 0.1,0 0.2,0.1 0.1,0 0.3,0.1 0.4,0.1 0.2,0 0.4,0.1 0.6,0.1 0.2,0 0.4,0.1 0.6,0.1 0.2,0 0.3,0 0.5,0 0.6,0 1.3,0 1.9,-0.1 0.2,0 0.3,0 0.5,0 0,0 0,0 0,0 0.1,0 0.3,-0.1 0.4,-0.1 0.1,0 0.3,0 0.5,-0.1 0.1,0 0.3,-0.1 0.4,-0.1 0.1,0 0.2,0 0.3,-0.1 0.2,-0.1 0.3,-0.1 0.5,-0.2 0.1,0 0.2,-0.1 0.4,-0.1 0.1,-0.1 0.3,-0.1 0.4,-0.2 0.1,0 0.2,-0.1 0.3,-0.1 0.2,-0.1 0.4,-0.2 0.6,-0.3 0,-0.1 0,-0.2 0,-0.2 0.1,-0.2 0.1,-0.3 0.2,-0.5 0,-0.1 0,-0.1 0,-0.2 0,-0.1 0,-0.1 0.1,-0.1 0.2,0 0.4,0 0.6,0 0.1,0 0.1,0 0.2,0 0.1,0 0.2,0 0.3,0.1 0,0 0,0 0.1,0 0.2,-0.1 0.3,-0.2 0.5,-0.3 0.1,-0.1 0.3,-0.2 0.4,-0.3 0.2,-0.1 0.3,-0.2 0.4,-0.4 0.1,0 0.1,-0.1 0.2,-0.1 0.2,-0.1 0.3,-0.3 0.5,-0.4 0.1,-0.1 0.2,-0.2 0.3,-0.3 0.2,-0.2 0.4,-0.4 0.5,-0.6 0.1,-0.1 0.2,-0.3 0.4,-0.5 0.1,-0.1 0.3,-0.3 0.4,-0.4 0.1,-0.2 0.2,-0.3 0.4,-0.5 0.1,-0.1 0.2,-0.3 0.3,-0.4 0.1,-0.1 0.2,-0.3 0.3,-0.4 0.1,-0.1 0.2,-0.2 0.2,-0.3 0,-0.1 0.1,-0.2 0.2,-0.2 0,-0.1 0.1,-0.1 0.1,-0.2 0,-0.1 0.1,-0.1 0.1,-0.2 0.1,-0.1 0.1,-0.2 0.2,-0.3 0.1,-0.2 0.2,-0.3 0.2,-0.5 0.1,-0.1 0.1,-0.3 0.2,-0.4 0.1,-0.1 0.1,-0.2 0.2,-0.4 0,0 0,0 0,0 0,-0.1 0,-0.2 -0.1,-0.2 0,-0.1 -0.1,-0.2 -0.1,-0.4 -0.1,-0.2 -0.1,-0.4 -0.1,-0.5 0.2,-0.1 0.4,-0.1 0.6,-0.2 0.1,0 0.2,-0.1 0.3,-0.1 0,0 0.1,0 0.1,-0.1 0.1,-0.2 0.1,-0.3 0.2,-0.5 0,-0.1 0.1,-0.2 0.1,-0.4 0,-0.1 0.1,-0.2 0.1,-0.3 0,-0.1 0,-0.2 0.1,-0.3 0.1,-0.2 0.1,-0.3 0.2,-0.5 0,-0.1 0,-0.2 0.1,-0.3 0.1,-0.2 0.1,-0.4 0.2,-0.6 0,-0.1 0.1,-0.3 0.1,-0.4 0,-0.1 0.1,-0.3 0.1,-0.4 0,-0.1 0,-0.2 0.1,-0.3 0,-0.1 0.1,-0.2 0.1,-0.3 0,0 0,-0.1 0,-0.1 0,-0.1 0,-0.2 0.1,-0.2 0,-0.1 0,-0.2 0,-0.4 0,-0.2 0.1,-0.4 0.1,-0.5 0,-0.1 0,-0.3 0,-0.4 0,-0.1 0,-0.3 0,-0.4 0,0 0,0 0,0 0,-0.2 0.1,-0.3 0.1,-0.5 0,-0.1 0,-0.3 0,-0.4 0,-0.2 0,-0.4 0,-0.6 0,-0.2 0,-0.4 0,-0.5 0,0 0,0 0,0 -0.1,-0.1 -0.1,-0.1 -0.2,-0.2 -0.1,-0.1 -0.2,-0.2 -0.3,-0.3 -0.1,-0.1 -0.2,-0.1 -0.2,-0.2 0,-0.1 0,-0.3 0.1,-0.4 0,0 0.1,-0.1 0.1,-0.1 0.1,-0.1 0.3,-0.2 0.3,-0.4 0.1,0 0.1,-0.2 0.1,-0.2 0,-0.2 0,-0.3 0,-0.5 0,-0.2 0,-0.5 0,-0.7 0,-0.2 0,-0.3 0,-0.5 0,0 0,0 0,0 0,-0.1 -0.1,-0.3 -0.1,-0.4 0,-0.2 0,-0.4 -0.1,-0.6 0,-0.1 0,-0.2 0,-0.4 0,0 0,0 0,0 0,-0.1 -0.1,-0.2 -0.1,-0.3 0,-0.1 0,-0.2 0,-0.3 0,-0.1 0,-0.2 0,-0.2 0,-0.1 -0.1,-0.2 -0.1,-0.3 0,-0.1 0,-0.2 0,-0.2 0,-0.1 0,-0.1 0,-0.2 0,-0.1 0,-0.1 -0.1,-0.2 0,-0.1 -0.1,-0.2 -0.1,-0.3 0,-0.1 0,-0.2 -0.1,-0.2 0,-0.1 0,-0.2 -0.1,-0.2 0,-0.1 -0.1,-0.2 -0.1,-0.3 0,-0.1 0,-0.1 -0.1,-0.2 0,-0.2 -0.1,-0.3 -0.1,-0.5 0,-0.1 0,-0.2 -0.1,-0.3 -0.1,-0.2 -0.1,-0.3 -0.2,-0.5 0,-0.1 -0.1,-0.3 -0.1,-0.4 0,-0.1 -0.1,-0.2 -0.1,-0.3 -0.3,-0.3 -0.6,-0.4 -0.9,-0.5 z"
     class="st3" /><path
     style="fill:#258e25;fill-opacity:1;stroke-width:1.09861112"
     inkscape:connector-curvature="0"
     id="path50"
     d="m 32.84944,28.650933 c 1,0 2,0 3.1,0 0.2,0 0.3,0.1 0.4,0.1 0,0 0.1,0.1 0.1,0.1 0.2,0 0.2,0.2 0.3,0.3 0.1,0.1 0.2,0.3 0.3,0.4 0.1,0.1 0.1,0.1 0.2,0.2 0.1,0.1 0.1,0.2 0.2,0.3 0.1,0.1 0.1,0.1 0.2,0.2 0,0.1 0.1,0.1 0.1,0.2 0.1,0.1 0.1,0.3 0.3,0.4 0,0 0.1,0.1 0.1,0.2 0,0 0,0.1 0.1,0.1 0,0.1 0.1,0.1 0.1,0.2 0,0.1 0.1,0.1 0.1,0.2 0.1,0.2 0.2,0.3 0.4,0.5 0.1,0.1 0.1,0.2 0.2,0.3 0,0.1 0.1,0.1 0.2,0.2 0.1,0.1 0.2,0.2 0.2,0.4 0,0.2 0,0.4 0,0.6 0,0.1 0,0.3 -0.1,0.4 0,0.1 -0.1,0.1 -0.1,0.2 -0.1,0.1 -0.1,0.2 -0.2,0.3 -0.1,0.1 -0.2,0.3 -0.3,0.4 -0.1,0.1 -0.2,0.3 -0.3,0.4 -0.1,0.1 -0.2,0.3 -0.3,0.4 0,0.1 -0.1,0.1 -0.1,0.2 0,0.1 -0.1,0.1 -0.1,0.2 -0.1,0.1 -0.2,0.3 -0.3,0.4 -0.1,0.1 -0.1,0.2 -0.2,0.4 -0.1,0.1 -0.1,0.2 -0.2,0.3 -0.1,0.1 -0.2,0.2 -0.3,0.4 -0.1,0.1 -0.1,0.2 -0.3,0.3 -0.1,0 -0.2,0.1 -0.3,0.2 0,0 -0.1,0 -0.1,0 -2.1,0 -4.3,0 -6.4,0 -0.1,0 -0.2,-0.1 -0.3,-0.1 -0.1,0 -0.1,-0.1 -0.2,-0.1 -0.1,0 -0.1,-0.1 -0.1,-0.1 0,0 -0.1,-0.1 -0.1,-0.1 -0.1,-0.1 -0.2,-0.1 -0.2,-0.2 0,-0.1 -0.2,-0.2 -0.2,-0.3 0,-0.1 -0.1,-0.1 -0.2,-0.2 0,0 0,-0.1 -0.1,-0.1 -0.1,-0.1 -0.2,-0.3 -0.3,-0.4 -0.1,-0.1 -0.2,-0.2 -0.3,-0.4 0,-0.1 -0.2,-0.2 -0.2,-0.3 0,-0.1 -0.1,-0.2 -0.2,-0.3 -0.1,-0.1 -0.2,-0.3 -0.3,-0.4 -0.1,-0.1 -0.1,-0.1 -0.2,-0.2 -0.1,-0.1 -0.2,-0.2 -0.2,-0.3 -0.1,-0.1 -0.1,-0.2 -0.2,-0.3 0,0 0,-0.1 0,-0.1 0,-0.2 0,-0.4 0,-0.7 0,-0.1 0,-0.2 0.1,-0.3 0.1,-0.1 0.1,-0.2 0.2,-0.3 0.1,-0.1 0.2,-0.3 0.3,-0.4 0.1,-0.1 0.1,-0.3 0.2,-0.3 0,0 0.1,-0.1 0.1,-0.2 0,0 0,0 0,0 0.1,-0.1 0.1,-0.2 0.2,-0.2 0,-0.1 0.1,-0.1 0.1,-0.2 0,0 0.1,-0.1 0.1,-0.1 0,-0.1 0.1,-0.1 0.1,-0.2 0.1,-0.1 0.1,-0.1 0.1,-0.2 0,0 0.1,-0.1 0.1,-0.1 0.1,-0.1 0.2,-0.3 0.3,-0.4 0,-0.1 0.1,-0.1 0.2,-0.2 0.1,-0.1 0.2,-0.2 0.2,-0.3 0,-0.1 0.1,-0.2 0.2,-0.3 0,-0.1 0.1,-0.2 0.1,-0.2 0.1,-0.1 0.2,-0.1 0.2,-0.2 0.1,0 0.2,-0.1 0.3,-0.1 0,0 0.1,0 0.1,0 1,-0.6 2.1,-0.6 3.1,-0.6 z"
     class="st3" /><path
     style="fill:#258e25;fill-opacity:1;stroke-width:1.09861112"
     inkscape:connector-curvature="0"
     id="path52"
     d="m 33.1,38.851679 c 1.1,0 2.1,0 3.2,0 0.1,0 0.1,0 0.2,0 0.1,0.09481 0.3,0.09481 0.4,0.284425 0,0 0,0.09481 0.1,0.09481 0.1,0.09481 0.2,0.284425 0.3,0.379234 0.1,0.09481 0.2,0.284424 0.3,0.379233 0.1,0.09481 0.2,0.284425 0.3,0.379233 0.1,0.09481 0.2,0.284425 0.3,0.379233 0.1,0.09481 0.2,0.284425 0.3,0.379233 0.1,0.09481 0.2,0.189617 0.3,0.284425 0.1,0.09481 0.1,0.189616 0.2,0.284425 0.1,0.09481 0.1,0.189616 0.2,0.284425 0,0 0.1,0.09481 0.1,0.09481 0,0.09481 0.1,0.09481 0.1,0.189616 0.1,0.09481 0.1,0.189617 0.2,0.189617 0,0 0,0.09481 0,0.09481 0,0.189617 0,0.474042 0,0.663658 0,0.09481 -0.1,0.189617 -0.1,0.284425 0,0.09481 -0.1,0.189617 -0.2,0.189617 0,0.09481 -0.1,0.09481 -0.2,0.189616 0,0.09481 -0.1,0.09481 -0.1,0.189617 -0.1,0.189616 -0.3,0.379233 -0.4,0.474041 -0.1,0.189617 -0.2,0.284425 -0.4,0.474042 -0.1,0.09481 -0.1,0.189616 -0.2,0.189616 -0.1,0.09481 -0.1,0.284425 -0.2,0.379233 -0.1,0.189617 -0.2,0.284425 -0.4,0.474042 -0.1,0.189616 -0.2,0.284425 -0.3,0.474041 0,0 -0.1,0.09481 -0.1,0.09481 -0.1,0.189617 -0.3,0.284425 -0.5,0.379234 C 36.4,47.1 36.2,47.1 36.1,47.1 c -2.1,0 -4.2,0 -6.2,0 -0.1,0 -0.1,0 -0.2,0 -0.1,-0.09481 -0.3,-0.189617 -0.4,-0.284425 0,0 -0.1,-0.09481 -0.1,-0.09481 0,0 -0.1,-0.09481 -0.1,-0.09481 0,0 0,-0.09481 -0.1,-0.09481 -0.1,-0.09481 -0.1,-0.189616 -0.2,-0.284425 -0.1,-0.09481 -0.1,-0.189616 -0.2,-0.189616 -0.1,-0.189617 -0.3,-0.379233 -0.4,-0.474042 -0.1,-0.09481 -0.2,-0.189616 -0.3,-0.284425 -0.1,-0.09481 -0.2,-0.284424 -0.3,-0.379233 -0.1,-0.09481 -0.2,-0.189616 -0.3,-0.284425 -0.1,-0.09481 -0.1,-0.189616 -0.2,-0.284424 0,0 -0.1,-0.09481 -0.1,-0.09481 0,0 0,-0.09481 -0.1,-0.09481 -0.1,-0.09481 -0.1,-0.189616 -0.2,-0.284425 0,-0.09481 -0.1,-0.09481 -0.1,-0.189616 -0.1,-0.09481 -0.1,-0.09481 -0.1,-0.189617 0,-0.189616 0,-0.474041 0,-0.663658 0,-0.09481 0.1,-0.189616 0.1,-0.284425 0,-0.09481 0.1,-0.09481 0.1,-0.189616 0,0 0,0 0,-0.09481 0.1,-0.09481 0.1,-0.189616 0.2,-0.189616 0,-0.09481 0.1,-0.09481 0.1,-0.189617 0.1,-0.189616 0.2,-0.379233 0.3,-0.474041 0.1,-0.09481 0.2,-0.189617 0.2,-0.284425 0.1,-0.09481 0.1,-0.189617 0.2,-0.189617 0,0 0.1,-0.09481 0.1,-0.09481 0.1,-0.09481 0.2,-0.189616 0.3,-0.284425 0.1,-0.189616 0.3,-0.379233 0.4,-0.568849 0.1,-0.09481 0.2,-0.284425 0.3,-0.474042 0.1,-0.09481 0.2,-0.189616 0.2,-0.284425 0.1,-0.189616 0.3,-0.189616 0.5,-0.284424 0,0 0.1,0 0.1,0 1.3,-0.09481 2.4,-0.09481 3.5,-0.09481 z"
     class="st3" /><path
     style="fill:#258e25;fill-opacity:1;stroke-width:1.09861112"
     inkscape:connector-curvature="0"
     id="path54"
     d="m 33,28.4 c -1.1,0 -2.1,0 -3.2,0 -0.1,0 -0.1,0 -0.2,0 -0.1,-0.1 -0.3,-0.1 -0.4,-0.2 0,0 -0.1,-0.1 -0.1,-0.1 C 29,27.9 28.9,27.8 28.8,27.6 28.7,27.4 28.6,27.3 28.4,27.1 28.3,27 28.3,27 28.2,26.9 c 0,0 0,-0.1 -0.1,-0.1 C 28,26.7 28,26.6 27.9,26.5 27.8,26.4 27.8,26.3 27.7,26.3 27.6,26.2 27.6,26.1 27.5,26 c 0,0 0,-0.1 -0.1,-0.1 0,0 -0.1,-0.1 -0.1,-0.1 C 27.2,25.7 27.1,25.6 27.1,25.5 27,25.4 27,25.3 26.9,25.2 27,25 27,24.9 26.9,24.8 c -0.1,-0.1 -0.2,-0.3 -0.3,-0.4 0,0 0,-0.1 0,-0.1 0,-0.2 0,-0.5 0,-0.7 0,-0.1 0.1,-0.2 0.2,-0.3 0,-0.1 0.1,-0.1 0.1,-0.2 C 27,23 27,23 27.1,22.9 c 0.1,-0.1 0.1,-0.2 0.2,-0.3 0,-0.1 0.1,-0.1 0.2,-0.2 0,-0.1 0.1,-0.1 0.1,-0.2 0,0 0,0 0,0 0.2,-0.1 0.2,-0.2 0.3,-0.4 0.1,-0.1 0.2,-0.3 0.3,-0.5 0,-0.1 0.1,-0.1 0.1,-0.2 0.1,-0.1 0.1,-0.2 0.2,-0.3 0,-0.1 0.1,-0.1 0.2,-0.2 0.1,-0.2 0.2,-0.3 0.3,-0.5 0.2,-0.2 0.2,-0.4 0.4,-0.5 0.1,0 0.2,-0.1 0.3,-0.2 0,0 0,0 0.1,0 2.1,0 4.3,0 6.4,0 0,0 0.1,0 0.1,0 0.1,0.1 0.3,0.1 0.4,0.2 0.1,0.1 0.1,0.2 0.2,0.3 0.1,0.1 0.2,0.2 0.2,0.3 0.1,0.1 0.2,0.2 0.2,0.3 0.1,0.1 0.1,0.2 0.2,0.2 0.1,0.1 0.1,0.2 0.2,0.3 0,0 0,0 0,0.1 0.1,0.1 0.2,0.3 0.3,0.4 0.1,0.1 0.2,0.2 0.2,0.3 0.1,0.1 0.2,0.2 0.2,0.3 0,0.1 0.1,0.1 0.1,0.2 0.1,0.1 0.2,0.3 0.3,0.4 0.1,0.1 0.1,0.2 0.2,0.2 0.1,0.1 0.2,0.2 0.3,0.4 0,0 0,0.1 0,0.1 0,0.2 0,0.4 0,0.7 0,0.1 -0.1,0.3 -0.2,0.4 -0.1,0.1 -0.1,0.1 -0.1,0.2 0,0.1 -0.1,0.1 -0.1,0.2 0,0.1 -0.1,0.1 -0.1,0.2 0,0.1 -0.1,0.1 -0.2,0.2 -0.1,0.1 -0.2,0.2 -0.2,0.4 -0.1,0.1 -0.1,0.2 -0.2,0.3 -0.1,0.1 -0.1,0.2 -0.2,0.2 0,0.1 -0.1,0.1 -0.2,0.2 -0.1,0.1 -0.2,0.2 -0.2,0.4 0,0.1 -0.1,0.1 -0.2,0.2 -0.1,0.1 -0.1,0.2 -0.2,0.3 -0.1,0.1 -0.2,0.2 -0.2,0.3 -0.1,0.1 -0.1,0.2 -0.2,0.3 -0.1,0.1 -0.2,0.2 -0.3,0.2 0,0 -0.1,0 -0.1,0.1 -0.1,0.1 -0.2,0.1 -0.4,0.1 -0.9,0.1 -1.9,0.1 -3,0.1 z"
     class="st3" /><path
     style="fill:#258e25;fill-opacity:1;stroke-width:1.09861112"
     inkscape:connector-curvature="0"
     id="path56"
     d="m 22.220086,33.3 c -1.050524,0 -2.005545,0 -3.056069,0 -0.0955,0 -0.191004,0 -0.191004,-0.1 C 18.782009,33 18.591004,32.8 18.4,32.6 c 0,0 0,-0.1 0,-0.1 0,-0.2 0,-0.3 0,-0.5 0,-0.2 0,-0.4 0,-0.7 0,-0.1 0,-0.2 0,-0.3 0,-0.2 0,-0.4 0,-0.6 0,-0.1 0,-0.2 0,-0.3 0,-0.2 0.0955,-0.4 0.0955,-0.6 0,-0.2 0,-0.3 0.0955,-0.5 0,-0.1 0.0955,-0.2 0.0955,-0.3 0,0 0,0 0,0 0,-0.2 0.0955,-0.4 0.0955,-0.6 0,-0.1 0,-0.2 0,-0.3 0,-0.1 0.0955,-0.3 0.0955,-0.4 0,-0.1 0,-0.1 0,-0.2 0,-0.1 0.0955,-0.2 0.0955,-0.4 0,-0.1 0.0955,-0.2 0.0955,-0.2 0,-0.2 0.0955,-0.4 0.191004,-0.6 0,0 0,-0.1 0,-0.2 0,-0.1 0.0955,-0.2 0.0955,-0.2 0,-0.1 0.0955,-0.3 0.0955,-0.4 0,-0.1 0.0955,-0.2 0.0955,-0.3 0,-0.1 0.0955,-0.2 0.0955,-0.4 0,-0.1 0.0955,-0.2 0.191004,-0.2 0.0955,0 0.286507,-0.1 0.382009,-0.2 0.0955,0 0.191004,0 0.286506,-0.1 0.286507,-0.1 0.573013,-0.1 0.859519,-0.1 1.241528,0 2.483056,0 3.724584,0 0.0955,0 0.191004,0.1 0.286507,0.1 0.0955,0 0.0955,0.1 0.191004,0.1 0.0955,0.1 0.191004,0.2 0.286506,0.3 0,0.1 0.0955,0.1 0.0955,0.2 0.0955,0.1 0.191005,0.2 0.286507,0.3 0,0.1 0.0955,0.1 0.0955,0.2 0,0.1 0.0955,0.1 0.191004,0.2 0.0955,0.1 0.0955,0.1 0.191005,0.2 0.0955,0.1 0.191004,0.2 0.286506,0.4 0,0 0.0955,0.1 0.0955,0.1 0,0 0,0 0,0 0.0955,0.1 0.191004,0.2 0.286507,0.3 0.0955,0.1 0.191004,0.2 0.191004,0.3 0,0.1 0.0955,0.1 0.0955,0.2 0.0955,0.1 0.191004,0.3 0.286506,0.4 0.0955,0.1 0.0955,0.2 0.286507,0.3 0,0 0,0.1 0.0955,0.1 0,0.1 0.0955,0.1 0.0955,0.2 0,0.1 0.0955,0.1 0.0955,0.2 0,0.3 0,0.5 0,0.8 0,0.1 -0.0955,0.2 -0.0955,0.2 -0.0955,0.2 -0.191004,0.3 -0.286506,0.5 -0.0955,0.1 -0.191005,0.3 -0.286507,0.4 -0.0955,0.1 -0.191004,0.3 -0.286506,0.4 -0.0955,0.1 -0.191004,0.3 -0.286507,0.4 -0.0955,0.1 -0.191004,0.3 -0.286506,0.4 -0.0955,0.1 -0.0955,0.2 -0.191004,0.3 -0.0955,0.1 -0.0955,0.2 -0.191005,0.3 -0.0955,0.1 -0.191004,0.2 -0.191004,0.4 0,0.1 -0.0955,0.1 -0.191004,0.2 -0.0955,0.1 -0.0955,0.2 -0.191004,0.4 0,0 -0.0955,0.1 -0.0955,0.1 -0.0955,0.1 -0.286506,0.1 -0.382008,0.2 0,0 -0.0955,0 -0.0955,0 -1.241528,0.3 -2.19655,0.3 -3.247073,0.3 z"
     class="st3" /><path
     style="fill:#258e25;fill-opacity:1;stroke-width:1.09861112"
     inkscape:connector-curvature="0"
     id="path58"
     d="m 43.45056,32.898507 c -1,0 -2.1,0 -3.1,0 -0.2,0 -0.3,-0.1 -0.4,-0.1 0,0 -0.1,-0.1 -0.1,-0.1 -0.1,-0.1 -0.2,-0.2 -0.3,-0.3 -0.1,-0.1 -0.1,-0.1 -0.1,-0.2 -0.1,-0.1 -0.1,-0.2 -0.2,-0.3 0,0 0,0 0,-0.1 0,-0.1 -0.1,-0.1 -0.1,-0.2 -0.1,-0.1 -0.1,-0.2 -0.2,-0.2 -0.1,-0.1 -0.1,-0.2 -0.2,-0.3 -0.1,-0.1 -0.2,-0.2 -0.2,-0.3 0,-0.1 -0.1,-0.1 -0.1,-0.2 -0.1,-0.1 -0.1,-0.1 -0.2,-0.2 -0.1,-0.1 -0.1,-0.1 -0.2,-0.2 0,0 0,-0.1 -0.1,-0.1 -0.1,-0.1 -0.1,-0.1 -0.2,-0.2 0,0 -0.1,-0.1 -0.1,-0.1 -0.1,-0.1 -0.2,-0.2 -0.2,-0.3 -0.1,-0.1 -0.2,-0.2 -0.2,-0.3 -0.1,-0.1 -0.1,-0.2 -0.1,-0.3 0,-0.2 0,-0.4 0,-0.6 0,-0.1 0,-0.2 0.1,-0.2 0.1,-0.1 0.1,-0.2 0.1,-0.2 0,0 0.1,-0.1 0.1,-0.1 0.1,-0.2 0.2,-0.3 0.4,-0.5 0.1,-0.1 0.1,-0.2 0.2,-0.3 0,-0.1 0.1,-0.1 0.2,-0.2 0.1,-0.1 0.2,-0.3 0.2,-0.4 0,0 0.1,-0.1 0.1,-0.1 0.1,-0.1 0.2,-0.2 0.3,-0.4 0.1,-0.2 0.2,-0.3 0.4,-0.5 0.1,-0.1 0.2,-0.3 0.3,-0.5 0.1,-0.1 0.2,-0.2 0.2,-0.3 0,-0.1 0.1,-0.1 0.1,-0.2 0.1,-0.1 0.3,-0.1 0.4,-0.2 0.2,-0.1 0.3,-0.1 0.5,-0.1 1.4,0 2.8,0 4.1,0 0.1,0 0.3,0.1 0.4,0.1 0.1,0 0.2,0.1 0.3,0.1 0.1,0 0.3,0.1 0.4,0.1 0.2,0 0.2,0.1 0.3,0.3 0.1,0.2 0.2,0.4 0.2,0.6 0,0.1 0,0.2 0.1,0.3 0,0.1 0.1,0.2 0.1,0.3 0,0.1 0.1,0.2 0.1,0.3 0,0.1 0.1,0.2 0.1,0.3 0,0.1 0,0.1 0.1,0.2 0.1,0.2 0.1,0.4 0.2,0.6 0,0 0,0.1 0,0.2 0,0.1 0,0.3 0.1,0.4 0.1,0.2 0.1,0.4 0.1,0.6 0,0.2 0.1,0.3 0.1,0.5 0,0.1 0,0.3 0,0.4 0,0.1 0,0.2 0.1,0.3 0,0 0,0 0,0 0,0.2 0,0.3 0,0.5 0,0.2 0.1,0.3 0.1,0.5 0,0 0,0 0,0 0,0.3 0,0.6 0,0.9 0,0.3 0,0.5 0,0.8 0,0.1 0,0.1 -0.1,0.2 -0.2,0.2 -0.3,0.3 -0.5,0.5 -0.1,0.1 -0.1,0.1 -0.2,0.1 -1.3,-0.3 -2.4,-0.3 -3.4,-0.3 z"
     class="st3" /><path
     style="fill:#258e25;fill-opacity:1;stroke-width:1.09861112"
     inkscape:connector-curvature="0"
     id="path60"
     d="m 43,42.7 c -0.7,0 -1.3,0 -2,0 -0.2,0 -0.3,0 -0.4,-0.1 C 40.5,42.5 40.3,42.5 40.2,42.3 40,42.2 40,42.1 39.9,42 c 0,0 -0.1,-0.1 -0.1,-0.1 0,0 0,-0.1 -0.1,-0.1 C 39.6,41.6 39.4,41.4 39.3,41.2 39.2,41.1 39.2,41 39.1,41 39,40.8 38.9,40.6 38.7,40.5 38.6,40.4 38.5,40.2 38.4,40 38.4,39.9 38.3,39.9 38.2,39.8 38.1,39.7 38,39.5 37.9,39.4 37.8,39.3 37.7,39.1 37.6,39 c -0.1,-0.1 -0.1,-0.2 -0.2,-0.3 0,0 0,-0.1 -0.1,-0.2 0,-0.2 0,-0.4 0,-0.7 0,-0.1 0.1,-0.2 0.1,-0.3 0,-0.1 0.1,-0.1 0.2,-0.2 0,0 0.1,-0.1 0.1,-0.1 0,-0.1 0.1,-0.2 0.1,-0.2 0,0 0.1,-0.1 0.1,-0.1 0.1,-0.1 0.1,-0.1 0.2,-0.2 0,0 0.1,-0.1 0.1,-0.2 0.1,-0.1 0.1,-0.2 0.2,-0.3 0,0 0,-0.1 0.1,-0.1 0.1,-0.1 0.1,-0.2 0.2,-0.3 0.1,-0.1 0.1,-0.2 0.2,-0.3 0,-0.1 0.1,-0.1 0.1,-0.1 0.1,-0.1 0.1,-0.2 0.2,-0.2 0.1,-0.1 0.2,-0.2 0.2,-0.3 0.1,-0.1 0.2,-0.2 0.2,-0.4 0,-0.1 0.1,-0.1 0.2,-0.2 0,-0.1 0.1,-0.1 0.1,-0.2 0,0 0,0 0,0 0.1,-0.1 0.2,-0.3 0.3,-0.3 0,0 0.1,-0.1 0.1,-0.1 0.1,0 0.2,-0.1 0.3,-0.1 2.1,0 4.3,0 6.4,0 0.1,0 0.2,0 0.2,0.1 0.1,0.2 0.3,0.3 0.5,0.5 0.1,0.1 0.1,0.2 0.1,0.3 0,0.1 0,0.3 0,0.4 0,0.2 0,0.5 0,0.7 0,0.2 0,0.3 0,0.5 0,0.1 0,0.2 0,0.3 0,0.2 0,0.4 -0.1,0.6 0,0.2 0,0.3 -0.1,0.5 0,0.1 -0.1,0.2 -0.1,0.3 0,0.1 0,0.1 0,0.2 0,0.2 0,0.3 -0.1,0.5 0,0.1 0,0.2 -0.1,0.3 0,0.1 0,0.2 -0.1,0.3 0,0.1 -0.1,0.3 -0.1,0.4 0,0.1 0,0.2 0,0.3 0,0.1 -0.1,0.2 -0.1,0.3 0,0.1 -0.1,0.3 -0.1,0.4 0,0.1 -0.1,0.2 -0.1,0.3 0,0.1 0,0.1 0,0.2 -0.1,0.1 -0.1,0.3 -0.2,0.4 0,0.1 0,0.1 0,0.2 0,0.1 -0.1,0.2 -0.2,0.4 0,0 0,0.1 0,0.2 0,0.1 -0.1,0.2 -0.2,0.3 -0.2,0 -0.3,0.1 -0.5,0.2 -0.1,0 -0.3,0.1 -0.4,0.1 -0.1,0.1 -0.3,0 -0.4,0 -0.6,-0.1 -1.3,-0.1 -1.9,-0.1 z"
     class="st3" /><path
     style="fill:#258e25;fill-opacity:1;stroke-width:1.09861112"
     inkscape:connector-curvature="0"
     id="path62"
     d="m 19.816225,42.325093 c -0.09334,-0.1 -0.09334,-0.3 -0.186667,-0.4 0,-0.1 -0.09334,-0.2 -0.09334,-0.3 -0.09334,-0.2 -0.09334,-0.3 -0.186667,-0.5 0,-0.1 -0.09334,-0.2 -0.09334,-0.4 0,-0.1 -0.09334,-0.2 -0.09334,-0.2 0,-0.1 -0.09334,-0.2 -0.09334,-0.3 0,-0.1 -0.09334,-0.3 -0.09334,-0.5 0,-0.1 -0.09334,-0.2 -0.09334,-0.4 0,0 0,-0.1 0,-0.1 0,-0.1 0,-0.2 -0.09334,-0.3 0,-0.1 0,-0.2 -0.09334,-0.2 0,0 0,0 0,0 0,-0.2 0,-0.3 -0.09334,-0.5 0,-0.1 -0.09334,-0.2 -0.09334,-0.3 0,-0.1 0,-0.1 0,-0.2 0,-0.1 0,-0.3 0,-0.4 0,-0.1 0,-0.2 -0.09334,-0.3 0,0 0,0 0,0 0,-0.2 0,-0.3 0,-0.5 0,-0.1 0,-0.3 -0.09333,-0.4 -0.09334,-0.2 0,-0.3 0,-0.5 -0.09334,-0.2 0,-0.4 0,-0.6 0,-0.2 0,-0.4 0,-0.6 0,0 0,0 0,-0.1 0.09333,-0.1 0.279999,-0.3 0.466667,-0.4 0,0 0,0 0.09334,-0.1 0.09334,-0.2 0.280002,-0.2 0.46667,-0.2 1.866677,0 3.733354,0 5.693365,0 0.186667,0 0.280002,0 0.466669,0.1 0.09334,0 0.09334,0.1 0.186668,0.1 0.09334,0 0.09334,0.1 0.186668,0.2 0.09334,0.1 0.09334,0.2 0.186667,0.2 0.09334,0.1 0.186668,0.2 0.186668,0.4 0.09334,0.1 0.186667,0.2 0.186667,0.3 0,0.1 0.09334,0.1 0.09334,0.2 0,0.1 0.09334,0.1 0.186667,0.2 0.09334,0.1 0.09334,0.2 0.186668,0.2 0.09334,0.1 0.186667,0.2 0.280002,0.3 0,0 0.09334,0.1 0.09334,0.1 0.09334,0.1 0.186669,0.3 0.280002,0.4 0.09334,0.2 0.186666,0.3 0.280001,0.5 0.09334,0.1 0.186667,0.3 0.280002,0.4 0.09334,0.1 0.186667,0.2 0.186667,0.3 0,0 0,0.1 0,0.1 0,0.3 0,0.5 0,0.8 0,0.1 0,0.1 -0.09334,0.2 -0.09334,0.2 -0.186668,0.4 -0.373335,0.5 -0.09334,0.1 -0.09334,0.2 -0.186667,0.3 0,0.1 -0.09334,0.2 -0.09334,0.2 0,0.1 -0.09334,0.1 -0.09334,0.2 -0.09334,0.1 -0.186668,0.3 -0.280002,0.4 -0.09334,0.1 -0.09334,0.1 -0.186668,0.2 0,0 0,0.1 -0.09334,0.1 -0.09334,0.1 -0.186669,0.2 -0.186669,0.4 0,0.1 -0.09334,0.1 -0.09334,0.2 -0.09334,0.1 -0.186668,0.2 -0.186668,0.3 0,0.1 -0.09334,0.1 -0.09334,0.2 -0.09334,0.1 -0.186668,0.2 -0.186668,0.3 0,0.1 -0.09334,0.2 -0.186667,0.3 -0.09334,0.2 -0.373335,0.3 -0.560003,0.4 0,0 -0.09334,0 -0.09334,0 -1.306675,0 -2.61335,0 -3.920023,0 -0.186667,0 -0.280002,0 -0.466669,0 -0.186668,-0.1 -0.373335,-0.1 -0.46667,-0.2 -0.373334,0 -0.560002,-0.1 -0.653336,-0.1 z"
     class="st3" /><path
     style="fill:#258e25;fill-opacity:1;stroke-width:1.09861112"
     inkscape:connector-curvature="0"
     id="path64"
     d="m 38.3,51.7 c -0.2,0.1 -0.4,0.2 -0.5,0.2 -0.1,0 -0.2,0.1 -0.3,0.1 -0.1,0 -0.2,0.1 -0.3,0.1 -0.1,0 -0.2,0.1 -0.3,0.1 -0.1,0 -0.2,0.1 -0.3,0.1 -0.1,0 -0.1,0 -0.2,0 -0.2,0 -0.3,0.1 -0.5,0.1 -0.1,0 -0.2,0 -0.3,0.1 -0.1,0 -0.2,0.1 -0.3,0.1 0,0 0,0 0,0 -0.2,0 -0.4,0 -0.6,0.1 -0.3,0 -0.5,0 -0.8,0.1 -0.5,0.1 -0.9,0 -1.4,0 -0.2,0 -0.4,0 -0.6,0 -0.2,0 -0.4,0 -0.7,-0.1 -0.1,0 -0.2,-0.1 -0.3,-0.1 -0.1,0 -0.2,0 -0.2,-0.1 -0.1,0 -0.2,0 -0.4,-0.1 -0.1,0 -0.2,-0.1 -0.3,-0.1 -0.2,0 -0.3,-0.1 -0.5,-0.1 -0.2,0 -0.3,-0.1 -0.4,-0.2 -0.1,0 -0.2,0 -0.3,-0.1 -0.2,-0.1 -0.4,-0.2 -0.6,-0.3 -0.1,0 -0.2,-0.1 -0.3,-0.1 -0.1,0 -0.1,-0.1 -0.1,-0.1 0,-0.1 0,-0.1 -0.1,-0.2 0,-0.1 -0.1,-0.3 -0.1,-0.4 0,-0.2 0,-0.3 -0.1,-0.5 0,0 0,0 0,0 0.1,-0.1 0.1,-0.1 0.2,-0.2 0,-0.1 0.1,-0.1 0.1,-0.2 0.1,-0.1 0.2,-0.3 0.2,-0.4 0,0 0.1,-0.1 0.1,-0.1 0.1,-0.1 0.2,-0.2 0.2,-0.3 0.1,-0.1 0.2,-0.3 0.3,-0.4 0.1,-0.1 0.1,-0.2 0.2,-0.3 0.1,-0.1 0.1,-0.2 0.2,-0.3 0.1,-0.1 0.3,-0.2 0.4,-0.3 0.1,0 0.1,0 0.2,0 2.1,0 4.2,0 6.3,0 0.1,0 0.2,0.1 0.3,0.1 0.1,0 0.2,0.1 0.3,0.1 0.1,0.1 0.1,0.1 0.2,0.2 0,0.1 0.1,0.1 0.1,0.2 0.1,0.1 0.2,0.2 0.2,0.3 0.1,0.2 0.2,0.3 0.3,0.4 0.1,0.1 0.1,0.2 0.2,0.3 0,0 0,0 0,0 0.1,0.1 0.2,0.2 0.3,0.4 0.1,0.1 0.2,0.3 0.3,0.5 0,0 0.1,0 0.1,0.1 0.1,0.1 0.1,0.3 0,0.4 -0.1,0.1 -0.1,0.3 -0.1,0.4 0.3,0.2 0.3,0.3 0.2,0.5 0,-0.1 0,0 0,0 z"
     class="st3" /><path
     style="fill:#258e25;fill-opacity:1;stroke-width:1.09861112"
     inkscape:connector-curvature="0"
     id="path66"
     d="m 33.282256,19.185435 c -1,0 -2,0 -3.1,0 -0.1,0 -0.2,0 -0.3,-0.1 -0.1,-0.1 -0.2,-0.1 -0.3,-0.2 -0.1,0 -0.1,-0.1 -0.1,-0.2 -0.1,-0.2 -0.3,-0.4 -0.4,-0.6 -0.1,-0.1 -0.1,-0.2 -0.2,-0.3 -0.1,-0.1 -0.1,-0.2 -0.2,-0.3 -0.1,-0.2 -0.2,-0.3 -0.4,-0.5 0,0 -0.1,-0.1 -0.1,-0.2 0,0 0,0 0,0 -0.1,-0.1 -0.2,-0.2 -0.3,-0.3 0,0 0,0 0,-0.1 0,-0.1 0,-0.2 0,-0.3 0,-0.1 0,-0.2 0.1,-0.3 0,-0.1 0,-0.1 0,-0.2 0,-0.1 0,-0.3 0.1,-0.4 0,-0.1 0.1,-0.1 0.2,-0.1 0.1,0 0.2,-0.1 0.2,-0.1 0.1,0 0.1,-0.1 0.2,-0.1 0.2,-0.1 0.4,-0.1 0.7,-0.2 0.1,-0.1 0.3,-0.1 0.4,-0.2 0.1,0 0.2,0 0.3,-0.1 0.1,0 0.3,-0.1 0.4,-0.1 0.1,0 0.1,0 0.2,0 0.2,0 0.4,0 0.6,-0.1 0.3,-0.1 0.7,-0.1 1,-0.1 0.7,-0.1 1.3,0 2,0 0.3,0 0.5,0 0.8,0.1 0.2,0 0.4,0.1 0.6,0.1 0.1,0 0.3,0 0.4,0.1 0.1,0 0.3,0.1 0.4,0.1 0.1,0 0.2,0 0.3,0.1 0.2,0 0.3,0.1 0.4,0.1 0.1,0 0.2,0.1 0.3,0.1 0.2,0.1 0.4,0.2 0.6,0.2 0.1,0.1 0.3,0.1 0.4,0.2 0.1,0 0.1,0.1 0.1,0.1 0,0.1 0.1,0.2 0.1,0.2 0,0 0,0.1 0,0.1 0,0.2 0.1,0.4 0.1,0.6 0,0.1 0,0.1 -0.1,0.2 -0.1,0.2 -0.3,0.4 -0.4,0.5 -0.1,0.1 -0.2,0.3 -0.3,0.4 0,0.1 -0.1,0.1 -0.2,0.2 0,0.1 -0.1,0.1 -0.1,0.2 0,0.1 -0.1,0.1 -0.1,0.2 0,0.1 -0.1,0.1 -0.2,0.2 -0.1,0.1 -0.2,0.2 -0.2,0.3 -0.1,0.2 -0.3,0.3 -0.5,0.4 -0.1,0.1 -0.3,0.1 -0.4,0.1 -1,0.3 -2,0.3 -3,0.3 z"
     class="st3" /><path
     style="fill:#258e25;fill-opacity:1;stroke-width:1.09861112"
     inkscape:connector-curvature="0"
     id="path68"
     d="m 38.993538,50.364513 c 0,-0.1 -0.1,-0.1 -0.1,-0.2 -0.1,-0.1 -0.1,-0.2 -0.2,-0.2 -0.1,-0.1 -0.1,-0.2 -0.2,-0.3 -0.1,-0.1 -0.1,-0.2 -0.2,-0.3 -0.1,-0.1 -0.1,-0.2 -0.2,-0.2 -0.1,-0.1 -0.1,-0.2 -0.3,-0.3 -0.1,-0.1 -0.1,-0.2 -0.2,-0.3 -0.1,-0.1 -0.1,-0.1 -0.2,-0.2 0,-0.1 -0.1,-0.1 -0.1,-0.3 0,-0.2 0,-0.5 0,-0.7 0,-0.1 0,-0.1 0.1,-0.2 0.1,-0.2 0.2,-0.3 0.3,-0.5 0,0 0,0 0.1,-0.1 0,-0.1 0.1,-0.1 0.1,-0.2 0,-0.1 0.1,-0.1 0.1,-0.2 0.1,-0.1 0.2,-0.2 0.3,-0.4 0.1,-0.1 0.1,-0.2 0.2,-0.3 0.1,-0.1 0.2,-0.2 0.2,-0.3 0.1,-0.1 0.2,-0.2 0.2,-0.3 0,-0.1 0.1,-0.1 0.1,-0.2 0,-0.1 0.1,-0.1 0.2,-0.2 0.1,-0.1 0.2,-0.2 0.2,-0.3 0.1,-0.2 0.3,-0.3 0.4,-0.5 0.1,-0.2 0.4,-0.3 0.6,-0.4 0,0 0,0 0.1,0 1.5,0 2.9,0 4.4,0 0,0 0,0 0,0 0,0.1 0.1,0.2 0.1,0.3 0,0.1 0,0.1 0.1,0.2 0,0.1 0.1,0.2 0.1,0.3 0.1,0.2 0,0.3 0,0.5 -0.1,0.1 -0.1,0.2 -0.2,0.3 -0.1,0.1 -0.1,0.2 -0.2,0.3 -0.1,0.1 -0.2,0.3 -0.2,0.4 0,0 -0.1,0.1 -0.1,0.1 -0.1,0.1 -0.2,0.3 -0.3,0.4 -0.1,0.1 -0.2,0.3 -0.2,0.4 -0.1,0.1 -0.2,0.2 -0.2,0.3 -0.1,0.1 -0.1,0.2 -0.2,0.2 0,0.1 -0.1,0.1 -0.1,0.2 -0.1,0.1 -0.2,0.2 -0.2,0.3 -0.1,0.1 -0.2,0.2 -0.2,0.3 0,0.1 -0.1,0.1 -0.1,0.2 -0.2,0.2 -0.3,0.4 -0.5,0.6 -0.3,0.3 -0.5,0.5 -0.8,0.8 -0.2,0.2 -0.4,0.4 -0.7,0.6 -0.1,0.1 -0.2,0.2 -0.4,0.3 -0.2,0.1 -0.4,0.3 -0.6,0.4 -0.1,0.1 -0.2,0 -0.4,0 0,0 0,0 0,0 -0.1,0 -0.3,0 -0.4,0 0,-0.3 -0.1,-0.3 -0.2,-0.3 z"
     class="st3" /><path
     style="fill:#258e25;fill-opacity:1;stroke-width:1.09861112"
     inkscape:connector-curvature="0"
     id="path70"
     d="m 20.9,43.2 c 1.5,0 3,0 4.4,0 0.1,0 0.2,0.1 0.3,0.1 0.1,0 0.2,0.1 0.2,0.2 0.1,0.1 0.1,0.1 0.2,0.2 0.1,0.1 0.1,0.3 0.3,0.4 0,0 0.1,0.1 0.1,0.2 0,0 0,0 0,0.1 0.1,0.1 0.2,0.2 0.3,0.4 0.1,0.1 0.2,0.2 0.3,0.3 0.1,0.1 0.1,0.2 0.2,0.3 0,0 0,0 0,0 0.1,0.1 0.1,0.2 0.2,0.2 0,0.1 0.1,0.1 0.2,0.2 0,0 0.1,0.1 0.1,0.1 0.1,0.1 0.1,0.2 0.2,0.3 0.1,0.1 0.2,0.2 0.3,0.3 0,0.1 0.1,0.1 0.1,0.2 0.1,0.1 0.2,0.3 0.3,0.4 0,0 0,0.1 0,0.1 0,0.3 0,0.5 0,0.8 0,0 0,0.1 0,0.1 0,0.1 -0.1,0.2 -0.1,0.2 0,0.1 -0.1,0.1 -0.1,0.2 -0.1,0.2 -0.2,0.3 -0.4,0.5 -0.1,0.1 -0.2,0.2 -0.3,0.4 -0.1,0.2 -0.2,0.3 -0.3,0.5 0,0 -0.1,0 -0.1,0.1 0,0.1 -0.1,0.2 -0.1,0.2 -0.1,0.1 -0.1,0.3 -0.3,0.3 -0.2,0 -0.3,0.1 -0.5,0.1 -0.1,0 -0.2,0 -0.3,0 -0.1,0 -0.2,0 -0.2,-0.1 -0.1,-0.1 -0.3,-0.2 -0.4,-0.3 0,0 -0.1,-0.1 -0.1,-0.1 C 25.3,50 25.2,49.9 25.1,49.8 25,49.7 24.8,49.6 24.7,49.4 24.3,49.1 24,48.7 23.6,48.4 23.4,48.2 23.2,48 23,47.7 22.9,47.6 22.8,47.4 22.7,47.3 22.6,47.2 22.5,47 22.4,46.9 22.4,46.8 22.3,46.8 22.3,46.8 22.2,46.7 22.2,46.6 22.1,46.5 22,46.4 21.9,46.3 21.8,46.2 21.7,46.1 21.7,46 21.7,46 21.6,45.9 21.5,45.7 21.4,45.6 21.3,45.5 21.3,45.4 21.2,45.3 21.1,45.2 21,45 21,44.9 c -0.1,-0.1 -0.1,-0.2 -0.1,-0.3 0,0 -0.1,-0.1 -0.1,-0.1 -0.1,-0.1 -0.1,-0.3 0,-0.4 0,-0.1 0.1,-0.3 0.2,-0.4 -0.2,-0.3 -0.1,-0.4 -0.1,-0.5 z"
     class="st3" /><path
     style="fill:#258e25;fill-opacity:1;stroke-width:1.09861112"
     inkscape:connector-curvature="0"
     id="path72"
     d="m 21.09518,23.830667 c 0,-0.1 -0.1,-0.2 -0.1,-0.4 -0.1,-0.2 -0.2,-0.4 -0.2,-0.7 0,-0.1 0,-0.2 0.1,-0.2 0.1,-0.1 0.1,-0.1 0.1,-0.2 0,-0.1 0.1,-0.2 0.2,-0.4 0.1,-0.2 0.2,-0.3 0.3,-0.5 0.1,-0.1 0.2,-0.2 0.3,-0.4 0.1,-0.1 0.1,-0.2 0.2,-0.3 0,0 0.1,-0.1 0.1,-0.1 0.1,-0.1 0.2,-0.3 0.3,-0.4 0.1,-0.2 0.2,-0.3 0.3,-0.5 0.2,-0.2 0.4,-0.5 0.6,-0.7 0.1,-0.1 0.2,-0.2 0.3,-0.3 0.3,-0.4 0.7,-0.7 1.1,-1.1 0.2,-0.2 0.5,-0.4 0.7,-0.6 0.2,-0.2 0.4,-0.3 0.6,-0.5 0.1,-0.1 0.2,-0.1 0.3,-0.2 0.1,0 0.3,0 0.4,0 0,0 0,0 0.1,0 0.2,0 0.4,0.1 0.6,0.1 0,0 0,0 0.1,0 0.1,0.1 0.2,0.2 0.3,0.4 0.1,0.1 0.2,0.2 0.2,0.3 0.1,0.1 0.2,0.2 0.2,0.3 0,0.1 0.1,0.1 0.1,0.2 0.1,0.1 0.2,0.3 0.3,0.4 0.1,0.1 0.2,0.2 0.3,0.3 0,0 0.1,0.1 0.1,0.2 0,0 0,0 0,0 0.1,0.1 0.1,0.2 0.1,0.3 0,0.2 0,0.4 0,0.6 0,0.1 0,0.1 -0.1,0.2 -0.1,0.2 -0.2,0.4 -0.4,0.5 0,0 -0.1,0.1 -0.1,0.1 -0.1,0.1 -0.2,0.2 -0.2,0.3 -0.1,0.1 -0.1,0.2 -0.2,0.3 0,0.1 -0.1,0.1 -0.2,0.2 0,0.1 -0.1,0.1 -0.1,0.2 0,0 0,0 0,0 -0.1,0.1 -0.2,0.2 -0.3,0.3 -0.1,0.1 -0.2,0.2 -0.2,0.4 -0.1,0.1 -0.1,0.2 -0.2,0.3 0,0.1 -0.1,0.1 -0.2,0.2 -0.1,0.1 -0.2,0.2 -0.3,0.4 0,0 -0.1,0.1 -0.1,0.1 -0.1,0.2 -0.3,0.4 -0.6,0.4 -0.1,0 -0.1,0 -0.2,0 -1.4,0 -2.8,0 -4.2,0 -0.3,0.5 -0.3,0.5 -0.4,0.5 z"
     class="st3" /><path
     style="fill:#258e25;fill-opacity:1;stroke-width:1.09861112"
     inkscape:connector-curvature="0"
     id="path74"
     d="m 42.9,23.6 c -0.7,0 -1.3,0 -2,0 -0.2,0 -0.4,-0.1 -0.6,-0.2 -0.2,-0.1 -0.3,-0.3 -0.4,-0.4 0,-0.1 -0.1,-0.1 -0.2,-0.2 0,-0.1 -0.1,-0.1 -0.1,-0.2 0,-0.1 -0.1,-0.1 -0.1,-0.2 0,-0.1 -0.1,-0.1 -0.1,-0.2 C 39.3,22.1 39.3,22 39.2,22 39.1,21.9 39.1,21.8 39,21.7 38.9,21.6 38.8,21.5 38.8,21.4 38.7,21.3 38.6,21.2 38.6,21.1 38.5,21 38.5,20.9 38.4,20.9 c 0,0 -0.1,-0.1 -0.1,-0.2 0,-0.1 -0.1,-0.1 -0.1,-0.2 0,-0.1 -0.1,-0.1 -0.1,-0.2 C 38,20.2 38,20.1 37.9,20.1 37.8,20 37.8,19.9 37.7,19.8 c 0,0 0,0 0,-0.1 -0.1,-0.1 -0.1,-0.1 -0.1,-0.2 0,-0.2 0,-0.4 0,-0.5 0,-0.2 0.1,-0.3 0.2,-0.4 0.1,-0.1 0.1,-0.2 0.2,-0.3 0.1,-0.1 0.2,-0.2 0.2,-0.3 0.1,-0.1 0.1,-0.2 0.2,-0.3 0.1,-0.1 0.1,-0.1 0.2,-0.2 0.1,-0.1 0.2,-0.2 0.2,-0.4 0,0 0.1,-0.1 0.1,-0.1 0.1,-0.1 0.2,-0.3 0.3,-0.4 0.1,-0.1 0.1,-0.1 0.2,-0.1 0.1,0 0.2,-0.1 0.3,-0.1 0.1,0 0.3,-0.1 0.4,0 0.1,0 0.1,0.1 0.2,0.1 0.1,0.1 0.3,0.2 0.4,0.3 0.1,0.1 0.2,0.2 0.3,0.2 0.2,0.2 0.5,0.4 0.7,0.6 0.1,0.1 0.2,0.2 0.2,0.2 0.2,0.2 0.5,0.5 0.7,0.7 0.1,0.1 0.3,0.3 0.4,0.4 0.1,0.1 0.2,0.2 0.2,0.3 0.1,0.1 0.2,0.3 0.3,0.4 0.1,0.1 0.2,0.2 0.3,0.4 0.1,0.1 0.2,0.3 0.3,0.5 0.1,0.1 0.1,0.2 0.3,0.3 0.1,0.1 0.1,0.2 0.2,0.4 0.1,0.1 0.1,0.2 0.2,0.3 0,0.1 0.1,0.2 0.1,0.3 0.1,0.1 0.1,0.2 0.2,0.3 0.1,0.1 0.1,0.2 0.1,0.2 0.1,0.1 0.1,0.3 0.2,0.4 0.1,0.1 0,0.2 0,0.4 -0.1,0.2 -0.1,0.3 -0.2,0.5 0,0.1 -0.1,0.2 -0.1,0.2 0,0 -0.1,0 -0.1,0 -0.7,-0.2 -1.4,-0.2 -2.1,-0.2 z"
     class="st3" /></g></svg>