<?xml version="1.0" encoding="UTF-8" standalone="no"?>
<!-- Roman Inozemtsev: https://github.com/mir-one/  -->

<svg
   xmlns:dc="http://purl.org/dc/elements/1.1/"
   xmlns:cc="http://creativecommons.org/ns#"
   xmlns:rdf="http://www.w3.org/1999/02/22-rdf-syntax-ns#"
   xmlns:svg="http://www.w3.org/2000/svg"
   xmlns="http://www.w3.org/2000/svg"
   xmlns:sodipodi="http://sodipodi.sourceforge.net/DTD/sodipodi-0.dtd"
   xmlns:inkscape="http://www.inkscape.org/namespaces/inkscape"
   version="1.1"
   id="Слой_1"
   x="0px"
   y="0px"
   viewBox="0 0 64.000001 64"
   xml:space="preserve"
   sodipodi:docname="wB-bg-HN.svg"
   inkscape:version="0.92.3 (2405546, 2018-03-11)"
   width="64"
   height="64"><metadata
   id="metadata19"><rdf:RDF><cc:Work
       rdf:about=""><dc:format>image/svg+xml</dc:format><dc:type
         rdf:resource="http://purl.org/dc/dcmitype/StillImage" /></cc:Work></rdf:RDF></metadata><defs
   id="defs17" /><sodipodi:namedview
   pagecolor="#ffffff"
   bordercolor="#666666"
   borderopacity="1"
   objecttolerance="10"
   gridtolerance="10"
   guidetolerance="10"
   inkscape:pageopacity="0"
   inkscape:pageshadow="2"
   inkscape:window-width="1366"
   inkscape:window-height="705"
   id="namedview15"
   showgrid="false"
   inkscape:zoom="2.4907045"
   inkscape:cx="16.230272"
   inkscape:cy="28.640756"
   inkscape:window-x="0"
   inkscape:window-y="354"
   inkscape:window-maximized="1"
   inkscape:current-layer="g962" />
<style
   type="text/css"
   id="style2">
	.st0{fill:#F79420;}
	.st1{fill:#D57E28;}
	.st2{fill:#FFFFFF;}
</style>

<circle
   style="opacity:1;fill:#0c579c;fill-opacity:1;fill-rule:nonzero;stroke:none;stroke-width:3;stroke-linecap:round;stroke-linejoin:bevel;stroke-miterlimit:4;stroke-dasharray:none;stroke-dashoffset:0;stroke-opacity:1;paint-order:stroke markers fill"
   id="path4778"
   cx="32"
   cy="32"
   r="32" /><path
   style="fill:#ffffff;stroke-width:0.99999994"
   d="M 32.04724,2.0000001 C 15.4891,2.0000001 2.0000001,15.417159 2.0000001,32.00091 2.0000001,48.58466 15.39644,62 31.95458,62 c 4,0 7.81359,-0.838868 11.25545,-2.236375 C 50.78335,56.782276 56.77696,50.727141 59.76889,43.27377 61.16424,39.826586 62,36.007097 62,32.00091 62,15.417159 48.60538,2.0000001 32.04724,2.0000001 Z m -0.0927,2.236375 c 15.25581,0 27.71984,12.3919569 27.71984,27.7645349 0,3.354017 -0.65007,6.520972 -1.67333,9.50232 -2.80494,7.639705 -8.89204,13.694842 -16.55887,16.489856 -2.97674,1.118005 -6.1388,1.677736 -9.48764,1.677736 -15.25582,0 -27.7216599,-12.390502 -27.7216599,-27.669912 0,-15.279411 12.4658399,-27.7645349 27.7216599,-27.7645349 z"
   id="path4"
   inkscape:connector-curvature="0" /><g
   id="g929"
   transform="translate(-44.465331,4.4164212)"><g
     id="g962"
     transform="translate(-0.088792,-0.2379401)"><path
       sodipodi:nodetypes="ccccscscccssccscccccsccccsscsccscccscssccsccccccs"
       inkscape:connector-curvature="0"
       id="path933"
       d="M 67.634447,42.706886 58.89447,37.759681 v -9.981024 -9.981026 l 8.582804,-4.857242 c 4.720541,-2.671483 8.694595,-4.8991308 8.831228,-4.9503298 0.146326,-0.05483 3.85936,1.92597 9.03453,4.8196708 l 8.786104,4.912758 0.04232,10.0258 0.04232,10.025798 -2.177759,1.227502 c -6.080659,3.427385 -15.480182,8.652501 -15.565085,8.652501 -0.05308,0 -4.029509,-2.226241 -8.836494,-4.947203 z m 15.363349,-2.707683 c 3.502224,-1.951557 6.644875,-3.726658 6.98367,-3.944671 l 0.615991,-0.396389 v -7.880018 -7.880019 l -0.615991,-0.396389 c -1.265102,-0.814088 -13.359903,-7.492953 -13.569041,-7.492953 -0.303703,0 -13.610907,7.540291 -13.863077,7.855266 -0.157735,0.197021 -0.204747,2.029237 -0.202815,7.904424 0.0014,4.206375 0.06532,7.74704 0.142076,7.868144 0.185452,0.292592 13.490397,7.872433 13.856488,7.894053 0.15676,0.0093 3.150475,-1.579892 6.652699,-3.531448 z M 69.798243,39.057789 c -3.353664,-1.912415 -6.21802,-3.578566 -6.365237,-3.702559 -0.240029,-0.202166 -0.267667,-0.983985 -0.267667,-7.57176 0,-6.7912 0.02172,-7.365313 0.287462,-7.597741 0.621533,-0.543615 12.573406,-7.190608 12.907989,-7.178733 0.195989,0.007 3.276139,1.654177 6.844779,3.660491 l 6.488435,3.647842 v 7.462796 7.462795 l -6.488435,3.647843 c -3.667372,2.061822 -6.666984,3.647472 -6.899096,3.646993 -0.231892,-4.93e-4 -3.065046,-1.514504 -6.50823,-3.477967 z m 12.641132,-1.274864 c 3.086593,-1.724983 5.704385,-3.254448 5.817317,-3.398812 0.296832,-0.379445 0.296832,-12.832532 0,-13.211977 -0.255597,-0.326736 -11.340206,-6.535145 -11.667969,-6.535145 -0.197182,0 -10.19884,5.55638 -11.411148,6.339417 l -0.369594,0.238724 v 6.570823 6.570825 l 0.698123,0.41716 c 2.965814,1.772215 10.777489,6.11761 11.01976,6.129955 0.165837,0.0084 2.826916,-1.395986 5.913511,-3.12097 z"
       style="fill:#26a6dc;stroke-width:0.16426417" /><path
       sodipodi:nodetypes="sccscscsccssscccsssscccscscssscssscs"
       inkscape:connector-curvature="0"
       id="path931"
       d="m 76.470737,45.607711 v -1.717848 l 0.751236,-0.440255 c 0.413179,-0.242138 3.519314,-1.967241 6.902521,-3.833557 3.383206,-1.866319 6.297581,-3.518569 6.476387,-3.671668 0.315585,-0.270211 0.325104,-0.509337 0.325104,-8.166258 0,-7.656922 -0.0095,-7.896048 -0.325104,-8.166259 C 90.422075,19.458767 87.5077,17.806517 84.124494,15.940199 80.741287,14.073881 77.635152,12.34878 77.221973,12.10664 L 76.470737,11.666387 V 9.9485382 c 0,-0.944818 0.06758,-1.71785 0.150171,-1.71785 0.08259,0 4.018774,2.1705298 8.747067,4.8234008 l 8.596897,4.8234 v 9.900636 9.900635 l -8.596897,4.823401 c -4.728293,2.652869 -8.664474,4.8234 -8.747067,4.8234 -0.08259,0 -0.150171,-0.773032 -0.150171,-1.71785 z m -6.652699,-6.78683 -6.242039,-3.568737 v -7.474019 -7.47402 l 6.242039,-3.568736 c 3.433121,-1.962804 6.297478,-3.570539 6.365237,-3.572745 0.06776,-0.0022 0.123198,0.284609 0.123198,0.637366 0,0.609336 -0.04718,0.668072 -0.944519,1.175782 -0.519485,0.293924 -3.051207,1.713284 -5.626048,3.154135 -2.574841,1.440852 -4.810887,2.734219 -4.968991,2.874149 -0.264673,0.234249 -0.287463,0.77131 -0.287463,6.774069 0,6.002758 0.02279,6.53982 0.287463,6.774068 0.158104,0.139931 2.39415,1.433297 4.968991,2.874149 2.574841,1.440851 5.106563,2.860212 5.626048,3.154135 0.897336,0.507711 0.944519,0.566447 0.944519,1.175783 0,0.352757 -0.05544,0.639571 -0.123198,0.637366 -0.06776,-0.0022 -2.932116,-1.609941 -6.365237,-3.572745 z"
       style="fill:#ffffff;stroke-width:0.16426417" /><path
       sodipodi:nodetypes="cccccsscscccccccccscscsccc"
       inkscape:connector-curvature="0"
       id="path933-3"
       d="m 69.893957,34.967999 c -1.57733,-0.911548 -2.92276,-1.737955 -2.98984,-1.836457 -0.0671,-0.0985 -0.10405,-2.53958 -0.0821,-5.424616 l 0.0398,-5.24552 2.93403,-1.694641 c 1.61373,-0.932053 2.9997,-1.694642 3.07996,-1.694642 0.0803,0 0.14591,1.398414 0.14591,3.107585 0,1.709172 0.0449,3.224509 0.0997,3.367415 0.0863,0.224883 0.53923,0.259832 3.36742,0.259832 h 3.26771 l 0.002,-3.162086 c 0.001,-1.739147 0.0655,-3.261455 0.14246,-3.382905 0.11494,-0.181353 0.23927,-0.169639 0.69561,0.06554 0.95432,0.49181 5.14446,2.888903 5.3626,3.067836 0.16114,0.132176 0.19787,1.36673 0.16427,5.521457 l -0.0433,5.351216 -2.95676,1.681415 c -2.64381,1.503454 -2.97849,1.652942 -3.16208,1.412399 -0.1483,-0.194298 -0.20533,-1.172779 -0.20533,-3.522905 v -3.253887 h -3.26771 c -2.82819,0 -3.28112,0.03495 -3.36742,0.259831 -0.0548,0.142906 -0.0997,1.69084 -0.0997,3.439853 0,1.749012 -0.0585,3.216162 -0.12995,3.260335 -0.0715,0.04417 -1.42049,-0.665502 -2.99782,-1.577051 z"
       style="fill:#ffffff;stroke-width:0.16426417;fill-opacity:1" /></g></g></svg>