<?xml version="1.0" encoding="UTF-8" standalone="no"?>
<!-- Roman Inozemtsev: https://github.com/mir-one/  -->

<svg
   xmlns:dc="http://purl.org/dc/elements/1.1/"
   xmlns:cc="http://creativecommons.org/ns#"
   xmlns:rdf="http://www.w3.org/1999/02/22-rdf-syntax-ns#"
   xmlns:svg="http://www.w3.org/2000/svg"
   xmlns="http://www.w3.org/2000/svg"
   xmlns:sodipodi="http://sodipodi.sourceforge.net/DTD/sodipodi-0.dtd"
   xmlns:inkscape="http://www.inkscape.org/namespaces/inkscape"
   version="1.1"
   id="Слой_1"
   x="0px"
   y="0px"
   viewBox="0 0 67 67"
   style="enable-background:new 0 0 67 67;"
   xml:space="preserve"
   sodipodi:docname="wB-bg-BTC.svg"
   inkscape:version="0.92.3 (2405546, 2018-03-11)"><metadata
   id="metadata25"><rdf:RDF><cc:Work
       rdf:about=""><dc:format>image/svg+xml</dc:format><dc:type
         rdf:resource="http://purl.org/dc/dcmitype/StillImage" /></cc:Work></rdf:RDF></metadata><defs
   id="defs23" /><sodipodi:namedview
   pagecolor="#ffffff"
   bordercolor="#666666"
   borderopacity="1"
   objecttolerance="10"
   gridtolerance="10"
   guidetolerance="10"
   inkscape:pageopacity="0"
   inkscape:pageshadow="2"
   inkscape:window-width="1366"
   inkscape:window-height="705"
   id="namedview21"
   showgrid="false"
   inkscape:zoom="4.981409"
   inkscape:cx="33.16295"
   inkscape:cy="37.061451"
   inkscape:window-x="0"
   inkscape:window-y="354"
   inkscape:window-maximized="1"
   inkscape:current-layer="g18" />
<style
   type="text/css"
   id="style2">
	.st0{fill:#F6921E;}
	.st1{fill:#F05A28;}
	.st2{fill:#FFFFFF;}
	.st3{fill:#58595B;}
</style>
<g
   id="g18">
	<path
   class="st0"
   d="M33.5,64.4c-17.1,0-30.9-13.9-30.9-30.9c0-17.1,13.9-30.9,30.9-30.9c17.1,0,30.9,13.9,30.9,30.9   c0,1.1-0.1,2.1-0.2,3.2l2.2,2.2c0.3-1.8,0.5-3.5,0.5-5.4C67,15,52,0,33.5,0S0,15,0,33.5S15,67,33.5,67c1.2,0,2.3-0.1,3.4-0.2   l-2.4-2.4C34.2,64.4,33.8,64.4,33.5,64.4z"
   id="path4" />
	
	<path
   class="st1"
   d="M66.5,38.9l-2.2-2.2c-1.5,15.3-14.2,27.2-29.8,27.7l2.4,2.4C52,65.3,64.1,53.7,66.5,38.9z"
   id="path8"
   style="fill:#f6921e;fill-opacity:1" />
	<path
   class="st2"
   d="M33.5,2.6C16.4,2.6,2.6,16.4,2.6,33.5c0,17.1,13.9,30.9,30.9,30.9c0.3,0,0.7,0,1-0.1   c15.6-0.5,28.2-12.5,29.8-27.7c0.1-1,0.2-2.1,0.2-3.2C64.4,16.4,50.6,2.6,33.5,2.6z M54,54c-5.9,5.9-13.7,8.7-21.4,8.5   c-7.1-0.2-14.2-3-19.6-8.5C1.7,42.7,1.7,24.3,13,13C24.3,1.7,42.7,1.7,54,13c6,6,8.8,14,8.4,21.8C62.1,41.8,59.3,48.7,54,54z"
   id="path10" />
	<path
   style="fill:#f6921e;fill-opacity:1"
   d="M 33.5 4.5253906 C 26.075 4.5253906 18.65 7.35 13 13 C 1.7 24.3 1.7 42.7 13 54 C 18.4 59.4 25.499609 62.2 32.599609 62.5 C 40.299609 62.7 48.1 59.9 54 54 C 59.3 48.7 62.1 41.800781 62.5 34.800781 L 62.402344 34.705078 C 62.774687 26.935334 59.975503 18.975503 54 13 C 48.35 7.35 40.925 4.5253906 33.5 4.5253906 z M 35.699219 13.199219 L 35.763672 13.277344 L 21.900391 43.099609 L 16.199219 44.099609 L 21.800781 43.099609 L 35.699219 13.199219 z M 42.199219 14.800781 L 42.251953 14.853516 L 39.599609 17.800781 L 39.552734 17.742188 L 42.199219 14.800781 z "
   id="path12" />
	
	<path
   class="st2"
   d="M48.2,29.3c0.7-4.5-2.7-6.9-7.4-8.5l1.5-6l-3.7-0.9l-1.4,5.9c-1-0.2-2-0.5-2.9-0.7l1.5-5.9l-3.7-0.9l-1.5,6   l-7.4-1.8l-1,3.9c0,0,2.7,0.6,2.7,0.7c1.5,0.4,1.8,1.4,1.7,2.1l-4.1,16.5c-0.2,0.5-0.6,1.1-1.7,0.9c0,0.1-2.7-0.7-2.7-0.7l-1.8,4.2   l7.4,1.9l-1.5,6.1l3.7,0.9l1.5-6c1,0.3,2,0.5,2.9,0.8l-1.5,6l3.7,0.9l1.5-6.1c6.3,1.2,11,0.7,13-5c1.6-4.6-0.1-7.2-3.4-8.9   C45.9,34.2,47.8,32.6,48.2,29.3 M39.8,41.1c-1.1,4.6-8.8,2.1-11.3,1.5l2-8.1C33,35.1,41,36.3,39.8,41.1 M41,29.3   c-1,4.2-7.4,2-9.5,1.5l1.8-7.3C35.4,24,42.1,24.9,41,29.3"
   id="path16" />
</g>
</svg>