<?xml version="1.0" encoding="UTF-8" standalone="no"?>
<!-- Roman Inozemtsev: https://github.com/mir-one/  -->

<svg
   xmlns:dc="http://purl.org/dc/elements/1.1/"
   xmlns:cc="http://creativecommons.org/ns#"
   xmlns:rdf="http://www.w3.org/1999/02/22-rdf-syntax-ns#"
   xmlns:svg="http://www.w3.org/2000/svg"
   xmlns="http://www.w3.org/2000/svg"
   xmlns:sodipodi="http://sodipodi.sourceforge.net/DTD/sodipodi-0.dtd"
   xmlns:inkscape="http://www.inkscape.org/namespaces/inkscape"
   version="1.1"
   id="Слой_1"
   x="0px"
   y="0px"
   viewBox="0 0 7.8 7.9"
   style="enable-background:new 0 0 7.8 7.9;"
   xml:space="preserve"
   sodipodi:docname="wIcon_clip_txIn.svg"
   inkscape:version="0.92.3 (2405546, 2018-03-11)"><metadata
   id="metadata11"><rdf:RDF><cc:Work
       rdf:about=""><dc:format>image/svg+xml</dc:format><dc:type
         rdf:resource="http://purl.org/dc/dcmitype/StillImage" /></cc:Work></rdf:RDF></metadata><defs
   id="defs9" /><sodipodi:namedview
   pagecolor="#ffffff"
   bordercolor="#666666"
   borderopacity="1"
   objecttolerance="10"
   gridtolerance="10"
   guidetolerance="10"
   inkscape:pageopacity="0"
   inkscape:pageshadow="2"
   inkscape:window-width="1366"
   inkscape:window-height="691"
   id="namedview7"
   showgrid="false"
   inkscape:zoom="29.873417"
   inkscape:cx="-3.3305085"
   inkscape:cy="3.95"
   inkscape:window-x="0"
   inkscape:window-y="0"
   inkscape:window-maximized="1"
   inkscape:current-layer="Слой_1" />
<style
   type="text/css"
   id="style2">
	.st0{fill:#4598C5;}
</style>
<g
   id="Layer_x0020_1"
   style="fill:#258e25;fill-opacity:1">
	<path
   id="wIcon_clip.svg"
   class="st0"
   d="M 0.2,3.4 3.4,0.2 C 3.6,0.1 3.7,0 3.9,0 4,0 4.2,0.1 4.3,0.2 l 3.2,3.2 c 0.3,0.2 0.3,0.7 0,1 L 5.9,6.1 4.1,2.4 3.9,2 3.7,2.4 1.9,6.1 0.2,4.4 c -0.3,-0.3 -0.3,-0.7 0,-1 z M 3.9,7.9 C 4,7.9 4.2,7.8 4.3,7.7 L 5.2,6.8 3.9,4.1 2.6,6.8 3.5,7.7 c 0.1,0.1 0.2,0.2 0.4,0.2 z"
   inkscape:connector-curvature="0"
   style="fill:#258e25;fill-opacity:1" />
</g>
</svg>