<?xml version="1.0" encoding="UTF-8" standalone="no"?>
<!-- Creator: CorelDRAW X7 -->

<svg
   xmlns:dc="http://purl.org/dc/elements/1.1/"
   xmlns:cc="http://creativecommons.org/ns#"
   xmlns:rdf="http://www.w3.org/1999/02/22-rdf-syntax-ns#"
   xmlns:svg="http://www.w3.org/2000/svg"
   xmlns="http://www.w3.org/2000/svg"
   xmlns:sodipodi="http://sodipodi.sourceforge.net/DTD/sodipodi-0.dtd"
   xmlns:inkscape="http://www.inkscape.org/namespaces/inkscape"
   xml:space="preserve"
   width="0.176661in"
   height="0.176661in"
   version="1.1"
   style="shape-rendering:geometricPrecision; text-rendering:geometricPrecision; image-rendering:optimizeQuality; fill-rule:evenodd; clip-rule:evenodd"
   viewBox="0 0 1506 1506"
   id="svg10"
   sodipodi:docname="wIcon_add.svg"
   inkscape:version="0.92.3 (2405546, 2018-03-11)"><metadata
   id="metadata14"><rdf:RDF><cc:Work
       rdf:about=""><dc:format>image/svg+xml</dc:format><dc:type
         rdf:resource="http://purl.org/dc/dcmitype/StillImage" /></cc:Work></rdf:RDF></metadata><sodipodi:namedview
   pagecolor="#ffffff"
   bordercolor="#666666"
   borderopacity="1"
   objecttolerance="10"
   gridtolerance="10"
   guidetolerance="10"
   inkscape:pageopacity="0"
   inkscape:pageshadow="2"
   inkscape:window-width="1366"
   inkscape:window-height="691"
   id="namedview12"
   showgrid="false"
   inkscape:zoom="13.915541"
   inkscape:cx="1.5809661"
   inkscape:cy="8.4797282"
   inkscape:window-x="0"
   inkscape:window-y="0"
   inkscape:window-maximized="1"
   inkscape:current-layer="svg10" />
 <defs
   id="defs4">
  <style
   type="text/css"
   id="style2">
   <![CDATA[
    .fillTrans {
		fill: none;
		fill-rule: nonzero
	}
	
	.fillBlue {
		fill: #0096DC;
		fill-rule: nonzero
	}
	
    .fillWhite {
		fill: #fff;
		fill-rule: nonzero
	}
   ]]>
  </style>
 
	   
	   
	   
	</defs>
	 <path
   style="fill:none;fill-rule:nonzero"
   inkscape:connector-curvature="0"
   d="M 1225,281 C 1104,160 937,85 753,85 569,85 402,160 281,281 160,402 85,569 85,753 c 0,184 75,351 196,472 v 0 c 121,121 288,196 472,196 184,0 351,-75 472,-196 121,-121 196,-288 196,-472 0,-184 -75,-351 -196,-472 z"
   class="fillTrans"
   id="bg" /><path
   style="fill:#258e25;fill-rule:nonzero;fill-opacity:1"
   inkscape:connector-curvature="0"
   d="m 753,0 c 208,0 396,84 532,221 v 0 c 136,136 221,324 221,532 0,208 -85,396 -221,532 v 0 c -136,136 -324,221 -532,221 -208,0 -396,-85 -532,-221 v 0 C 84,1149 0,961 0,753 0,545 84,357 221,221 357,84 545,0 753,0 Z m 472,281 C 1104,160 937,85 753,85 569,85 402,160 281,281 160,402 85,569 85,753 c 0,184 75,351 196,472 v 0 c 121,121 288,196 472,196 184,0 351,-75 472,-196 121,-121 196,-288 196,-472 0,-184 -75,-351 -196,-472 z"
   class="fillBlue"
   id="outter" /><polygon
   style="fill:#258e25;fill-rule:nonzero;fill-opacity:1"
   points="796,795 796,1177 710,1177 710,795 328,795 328,710 710,710 710,328 796,328 796,710 1177,710 1177,795 "
   class="fillBlue"
   id="inner" />

</svg>