<?xml version="1.0" encoding="UTF-8" standalone="no"?>
<!-- Roman Inozemtsev: https://github.com/mir-one/  -->

<svg
   xmlns:dc="http://purl.org/dc/elements/1.1/"
   xmlns:cc="http://creativecommons.org/ns#"
   xmlns:rdf="http://www.w3.org/1999/02/22-rdf-syntax-ns#"
   xmlns:svg="http://www.w3.org/2000/svg"
   xmlns="http://www.w3.org/2000/svg"
   xmlns:sodipodi="http://sodipodi.sourceforge.net/DTD/sodipodi-0.dtd"
   xmlns:inkscape="http://www.inkscape.org/namespaces/inkscape"
   version="1.1"
   id="Слой_1"
   x="0px"
   y="0px"
   viewBox="0 0 17.9 17.9"
   style="enable-background:new 0 0 17.9 17.9;"
   xml:space="preserve"
   sodipodi:docname="wicon_txmenu.svg"
   inkscape:version="0.92.3 (2405546, 2018-03-11)"><metadata
   id="metadata11"><rdf:RDF><cc:Work
       rdf:about=""><dc:format>image/svg+xml</dc:format><dc:type
         rdf:resource="http://purl.org/dc/dcmitype/StillImage" /></cc:Work></rdf:RDF></metadata><defs
   id="defs9"><filter
     inkscape:collect="always"
     style="color-interpolation-filters:sRGB"
     id="filter4750"
     x="-0.012"
     width="1.024"
     y="-0.012"
     height="1.024"><feGaussianBlur
       inkscape:collect="always"
       stdDeviation="0.0895"
       id="feGaussianBlur4752" /></filter></defs><sodipodi:namedview
   pagecolor="#ffffff"
   bordercolor="#666666"
   borderopacity="1"
   objecttolerance="10"
   gridtolerance="10"
   guidetolerance="10"
   inkscape:pageopacity="0"
   inkscape:pageshadow="2"
   inkscape:window-width="1366"
   inkscape:window-height="691"
   id="namedview7"
   showgrid="false"
   inkscape:zoom="13.184358"
   inkscape:cx="-14.790254"
   inkscape:cy="8.9499999"
   inkscape:window-x="0"
   inkscape:window-y="0"
   inkscape:window-maximized="1"
   inkscape:current-layer="Слой_1" />
<style
   type="text/css"
   id="style2">
	.st0{fill:#4598C5;}
</style>
<g
   id="Layer_x0020_1"
   style="fill:#258e25;fill-opacity:1;filter:url(#filter4750)">
	<path
   id="Layer_x0020_1_0"
   class="st0"
   d="m 9,0 c 2.4,0 4.7,1 6.3,2.6 1.6,1.7 2.6,3.9 2.6,6.4 0,2.4 -1,4.7 -2.6,6.3 -1.7,1.6 -3.9,2.6 -6.3,2.6 -2.5,0 -4.8,-1 -6.4,-2.6 C 1,13.7 0,11.5 0,9 0,6.5 1,4.2 2.6,2.6 4.3,1 6.5,0 9,0 Z M 6.3,8.6 h 1 L 7.1,9.2 H 6.3 Z m 4.3,0 h 1 V 9.2 H 10.8 Z M 6.3,7.6 H 7.8 L 7.6,8.1 H 6.3 Z m 3.8,0 h 1.5 v 0.6 h -1.2 z m -3.8,-1 h 2 L 8.1,7.1 H 6.3 Z m 3.4,0 h 1.9 V 7.2 H 9.9 Z M 6.3,5.5 h 5.3 V 6.1 H 6.3 Z m 6.9,-1.7 v 7.6 H 12 V 5 H 6 v 6.3 H 4.8 V 3.8 c 2.8,0 5.6,0 8.4,0 z M 7.9,16.4 V 13 H 6.1 L 9.1,6.8 12,13 h -1.8 v 3.4 c 1.7,-0.2 3.1,-1 4.3,-2.1 C 15.6,13 16.5,11 16.5,9 16.5,6.9 15.6,5 14.3,3.7 13,2.3 11,1.4 9,1.4 6.9,1.4 5,2.3 3.7,3.6 2.4,4.9 1.4,6.9 1.4,9 c 0,2 0.9,4 2.2,5.3 1.2,1.1 2.7,1.9 4.3,2.1 z"
   inkscape:connector-curvature="0"
   style="fill:#258e25;fill-opacity:1" />
</g>
</svg>